<svg width="169" height="184" viewBox="0 0 169 184" fill="none" xmlns="http://www.w3.org/2000/svg">
<g id="&#240;&#159;&#142;&#137;&#240;&#159;&#142;&#137;&#240;&#159;&#142;&#137; REFERENSES FOR AI VIBECODING">
<g id="Group 140226">
<g id="Group 140164" filter="url(#filter0_d_2105_27617)">
<rect id="Rectangle 46" width="49.7989" height="66.0088" rx="7.82374" transform="matrix(0.994944 0.10043 -0.100441 0.994943 116.863 41.3463)" fill="#4988FC"/>
<g id="Group 140158">
<foreignObject x="91.3957" y="41.3904" width="74.6167" height="91.146"><div xmlns="http://www.w3.org/1999/xhtml" style="backdrop-filter:blur(2.64px);clip-path:url(#bgblur_0_2105_27617_clip_path);height:100%;width:100%"></div></foreignObject><rect id="Rectangle 47" data-figma-bg-blur-radius="5.28102" width="56.7708" height="75.25" rx="7.82374" transform="matrix(0.994944 0.10043 -0.100441 0.994943 104.241 46.678)" fill="url(#paint0_linear_2105_27617)" fill-opacity="0.7" stroke="white" stroke-opacity="0.5" stroke-width="1.50414"/>
<g id="Group 140127">
<g id="Frame 2099" filter="url(#filter2_d_2105_27617)">
<path id="DOC" d="M113.791 96.9695C115.045 97.0961 116.116 97.4552 117.003 98.0469C117.891 98.6386 118.543 99.412 118.96 100.367C119.39 101.312 119.545 102.372 119.427 103.547C119.309 104.71 118.945 105.718 118.334 106.569C117.734 107.421 116.935 108.048 115.936 108.45C114.948 108.852 113.833 108.99 112.59 108.865L108.134 108.415L109.335 96.5197L113.791 96.9695ZM112.657 106.338C113.753 106.449 114.636 106.236 115.307 105.699C115.977 105.161 116.368 104.345 116.478 103.249C116.589 102.153 116.37 101.27 115.821 100.598C115.273 99.9264 114.451 99.5353 113.355 99.4247L111.982 99.2861L111.285 106.2L112.657 106.338ZM126.059 110.344C124.941 110.232 123.939 109.868 123.054 109.254C122.18 108.64 121.513 107.843 121.053 106.861C120.606 105.868 120.44 104.79 120.558 103.627C120.675 102.463 121.052 101.446 121.688 100.574C122.335 99.7035 123.148 99.0552 124.127 98.629C125.117 98.204 126.171 98.0479 127.289 98.1608C128.408 98.2737 129.404 98.6367 130.278 99.2499C131.163 99.8642 131.824 100.661 132.262 101.641C132.71 102.622 132.876 103.695 132.758 104.858C132.641 106.022 132.264 107.045 131.627 107.928C130.991 108.8 130.184 109.448 129.205 109.875C128.226 110.301 127.178 110.457 126.059 110.344ZM126.326 107.701C127.275 107.797 128.064 107.557 128.693 106.981C129.333 106.407 129.705 105.6 129.81 104.561C129.916 103.51 129.712 102.645 129.199 101.965C128.698 101.276 127.973 100.883 127.024 100.787C126.064 100.69 125.264 100.924 124.625 101.487C123.998 102.051 123.631 102.864 123.523 103.926C123.417 104.977 123.615 105.847 124.116 106.536C124.629 107.216 125.366 107.604 126.326 107.701ZM133.877 104.988C133.996 103.813 134.356 102.794 134.956 101.93C135.558 101.055 136.337 100.409 137.292 99.9921C138.259 99.5649 139.319 99.4094 140.471 99.5257C141.884 99.6682 143.055 100.163 143.985 101.01C144.915 101.857 145.485 102.942 145.693 104.264L142.508 103.942C142.321 103.421 142.02 103.009 141.606 102.704C141.203 102.401 140.724 102.222 140.171 102.166C139.278 102.076 138.524 102.313 137.908 102.879C137.291 103.444 136.931 104.247 136.826 105.286C136.721 106.325 136.914 107.183 137.405 107.861C137.896 108.538 138.587 108.921 139.48 109.012C140.033 109.067 140.538 108.987 140.993 108.771C141.46 108.555 141.837 108.211 142.125 107.738L145.31 108.059C144.841 109.313 144.067 110.262 142.986 110.906C141.906 111.539 140.66 111.784 139.248 111.641C138.096 111.525 137.088 111.167 136.224 110.566C135.373 109.955 134.739 109.166 134.323 108.2C133.907 107.234 133.759 106.163 133.877 104.988Z" fill="white"/>
</g>
</g>
</g>
</g>
<g id="Group 140165" filter="url(#filter3_d_2105_27617)">
<rect id="Rectangle 45" width="72.8107" height="96.5111" rx="11.4391" transform="matrix(0.990748 -0.135715 0.135731 0.990746 1.76562 59.7478)" fill="#D84026"/>
<g id="Group 140159">
<foreignObject x="8.31575" y="49.4356" width="111.226" height="134.326"><div xmlns="http://www.w3.org/1999/xhtml" style="backdrop-filter:blur(3.86px);clip-path:url(#bgblur_1_2105_27617_clip_path);height:100%;width:100%"></div></foreignObject><rect id="Rectangle 47_2" data-figma-bg-blur-radius="7.72136" width="83.0042" height="110.023" rx="11.4391" transform="matrix(0.990748 -0.135715 0.135731 0.990746 15.3438 67.7288)" fill="url(#paint1_linear_2105_27617)" fill-opacity="0.7" stroke="white" stroke-opacity="0.5" stroke-width="1.50414"/>
<g id="Group 140127_2">
<g id="Frame 2099_2" filter="url(#filter5_d_2105_27617)">
<path id="PDF" d="M58.3185 140.184C58.456 141.187 58.3519 142.14 58.0063 143.042C57.6584 143.927 57.0424 144.69 56.1583 145.331C55.2743 145.971 54.125 146.388 52.7105 146.582L50.0954 146.94L50.9471 153.158L46.7284 153.735L44.3557 136.416L51.1896 135.48C52.5711 135.291 53.7716 135.37 54.7909 135.716C55.8101 136.062 56.6157 136.622 57.2076 137.396C57.7995 138.169 58.1698 139.099 58.3185 140.184ZM51.9301 143.271C52.736 143.161 53.3104 142.889 53.6534 142.457C53.9963 142.024 54.1204 141.463 54.0258 140.772C53.9311 140.081 53.6605 139.574 53.214 139.25C52.7674 138.925 52.1412 138.818 51.3353 138.929L49.0409 139.243L49.6357 143.585L51.9301 143.271ZM66.2394 133.419C68.0651 133.169 69.7101 133.312 71.1743 133.849C72.6386 134.385 73.8309 135.261 74.7513 136.475C75.6859 137.671 76.2704 139.124 76.5047 140.835C76.7368 142.529 76.5647 144.085 75.9884 145.505C75.4285 146.922 74.5073 148.087 73.2249 149C71.9589 149.911 70.4213 150.49 68.6121 150.738L62.1236 151.627L59.751 134.308L66.2394 133.419ZM67.8405 147.124C69.4359 146.905 70.618 146.299 71.3867 145.306C72.1554 144.312 72.4305 143.018 72.212 141.423C71.9934 139.827 71.3792 138.646 70.3694 137.88C69.3595 137.113 68.0569 136.839 66.4615 137.058L64.4632 137.332L65.8422 147.397L67.8405 147.124ZM88.9506 130.308L89.4137 133.688L82.3578 134.654L82.858 138.305L88.1376 137.582L88.5871 140.863L83.3075 141.587L84.2674 148.593L80.0487 149.171L77.676 131.852L88.9506 130.308Z" fill="white"/>
</g>
</g>
</g>
</g>
<g id="Group 140176">
<path id="Vector 172" d="M103.064 178.057C102.654 177.991 102.268 178.27 102.202 178.68C102.136 179.09 102.414 179.476 102.824 179.542L102.944 178.8L103.064 178.057ZM136.58 170.17L137.114 170.7L136.58 170.17ZM147.857 144.937C147.883 144.523 147.568 144.166 147.153 144.14C146.739 144.114 146.382 144.429 146.356 144.843L147.106 144.89L147.857 144.937ZM102.944 178.8L102.824 179.542C110.374 180.762 125.603 182.305 137.114 170.7L136.58 170.17L136.046 169.641C125.099 180.677 110.569 179.27 103.064 178.057L102.944 178.8ZM136.58 170.17L137.114 170.7C147.349 160.381 147.605 148.959 147.857 144.937L147.106 144.89L146.356 144.843C146.106 148.84 145.859 159.748 136.046 169.641L136.58 170.17Z" fill="#4988FC"/>
<path id="Vector 173" d="M139.951 151.466C139.616 151.712 139.543 152.182 139.789 152.517C140.034 152.852 140.505 152.925 140.84 152.68L140.395 152.073L139.951 151.466ZM147.217 143.108L147.924 142.85C147.811 142.539 147.507 142.339 147.177 142.357C146.847 142.374 146.567 142.606 146.487 142.927L147.217 143.108ZM149.818 154.187C149.894 154.595 150.286 154.865 150.695 154.79C151.103 154.714 151.373 154.322 151.298 153.914L150.558 154.05L149.818 154.187ZM140.395 152.073L140.84 152.68C141.821 151.96 143.331 150.649 144.722 149.016C146.107 147.393 147.428 145.39 147.948 143.288L147.217 143.108L146.487 142.927C146.049 144.701 144.897 146.494 143.578 148.041C142.266 149.579 140.844 150.812 139.951 151.466L140.395 152.073ZM147.217 143.108L146.511 143.365C148.641 149.203 149.606 153.037 149.818 154.187L150.558 154.05L151.298 153.914C151.064 152.65 150.07 148.729 147.924 142.85L147.217 143.108Z" fill="#4988FC"/>
</g>
<g id="Group 140177">
<path id="Vector 172_2" d="M106.1 23.8847C106.437 24.1264 106.907 24.0486 107.149 23.7109C107.391 23.3732 107.313 22.9034 106.975 22.6616L106.537 23.2732L106.1 23.8847ZM72.5751 16.0355L72.3326 15.3237L72.5751 16.0355ZM51.2478 33.6156C51.0401 33.9753 51.1634 34.4353 51.5231 34.643C51.8828 34.8506 52.3428 34.7274 52.5504 34.3677L51.8991 33.9916L51.2478 33.6156ZM106.537 23.2732L106.975 22.6616C100.757 18.2102 87.8055 10.0523 72.3326 15.3237L72.5751 16.0355L72.8176 16.7474C87.5323 11.7344 99.9186 19.4598 106.1 23.8847L106.537 23.2732ZM72.5751 16.0355L72.3326 15.3237C58.5743 20.0109 53.2629 30.1255 51.2478 33.6156L51.8991 33.9916L52.5504 34.3677C54.5526 30.9 59.6273 21.2411 72.8176 16.7474L72.5751 16.0355Z" fill="#4988FC"/>
<path id="Vector 173_2" d="M61.2341 31.2861C61.6434 31.2154 61.9178 30.8263 61.8471 30.417C61.7764 30.0077 61.3872 29.7333 60.9779 29.804L61.106 30.5451L61.2341 31.2861ZM51.0069 35.5384L50.2595 35.455C50.2228 35.7837 50.4052 36.0979 50.709 36.2289C51.0128 36.36 51.3665 36.2771 51.5805 36.0249L51.0069 35.5384ZM53.6075 24.4592C53.7218 24.0599 53.4906 23.6436 53.0913 23.5293C52.692 23.4151 52.2756 23.6462 52.1614 24.0456L52.8844 24.2524L53.6075 24.4592ZM61.106 30.5451L60.9779 29.804C59.7787 30.0113 57.8431 30.5143 55.8707 31.3568C53.9087 32.1949 51.8338 33.4009 50.4334 35.0519L51.0069 35.5384L51.5805 36.0249C52.7627 34.6312 54.5922 33.5385 56.4615 32.74C58.3204 31.946 60.143 31.4747 61.2341 31.2861L61.106 30.5451ZM51.0069 35.5384L51.7544 35.6218C52.4439 29.4466 53.2859 25.5833 53.6075 24.4592L52.8844 24.2524L52.1614 24.0456C51.808 25.2807 50.9541 29.2347 50.2595 35.455L51.0069 35.5384Z" fill="#4988FC"/>
</g>
</g>
</g>
<defs>
<filter id="filter0_d_2105_27617" x="93.4654" y="42.0919" width="75.411" height="92.389" filterUnits="userSpaceOnUse" color-interpolation-filters="sRGB">
<feFlood flood-opacity="0" result="BackgroundImageFix"/>
<feColorMatrix in="SourceAlpha" type="matrix" values="0 0 0 0 0 0 0 0 0 0 0 0 0 0 0 0 0 0 127 0" result="hardAlpha"/>
<feOffset dy="4.0142"/>
<feGaussianBlur stdDeviation="1.60568"/>
<feComposite in2="hardAlpha" operator="out"/>
<feColorMatrix type="matrix" values="0 0 0 0 0 0 0 0 0 0.269717 0 0 0 0 0.766339 0 0 0 0.2 0"/>
<feBlend mode="normal" in2="BackgroundImageFix" result="effect1_dropShadow_2105_27617"/>
<feBlend mode="normal" in="SourceGraphic" in2="effect1_dropShadow_2105_27617" result="shape"/>
</filter>
<clipPath id="bgblur_0_2105_27617_clip_path" transform="translate(-91.3957 -41.3904)"><rect width="56.7708" height="75.25" rx="7.82374" transform="matrix(0.994944 0.10043 -0.100441 0.994943 104.241 46.678)"/>
</clipPath><filter id="filter2_d_2105_27617" x="96.254" y="88.8176" width="61.4042" height="30.9342" filterUnits="userSpaceOnUse" color-interpolation-filters="sRGB">
<feFlood flood-opacity="0" result="BackgroundImageFix"/>
<feColorMatrix in="SourceAlpha" type="matrix" values="0 0 0 0 0 0 0 0 0 0 0 0 0 0 0 0 0 0 127 0" result="hardAlpha"/>
<feOffset/>
<feGaussianBlur stdDeviation="0.660128"/>
<feComposite in2="hardAlpha" operator="out"/>
<feColorMatrix type="matrix" values="0 0 0 0 0 0 0 0 0 0.129181 0 0 0 0 0.367037 0 0 0 0.3 0"/>
<feBlend mode="normal" in2="BackgroundImageFix" result="effect1_dropShadow_2105_27617"/>
<feBlend mode="normal" in="SourceGraphic" in2="effect1_dropShadow_2105_27617" result="shape"/>
</filter>
<filter id="filter3_d_2105_27617" x="-0.000421286" y="51.3115" width="115.032" height="131.954" filterUnits="userSpaceOnUse" color-interpolation-filters="sRGB">
<feFlood flood-opacity="0" result="BackgroundImageFix"/>
<feColorMatrix in="SourceAlpha" type="matrix" values="0 0 0 0 0 0 0 0 0 0 0 0 0 0 0 0 0 0 127 0" result="hardAlpha"/>
<feOffset dy="4.0142"/>
<feGaussianBlur stdDeviation="1.60568"/>
<feComposite in2="hardAlpha" operator="out"/>
<feColorMatrix type="matrix" values="0 0 0 0 0 0 0 0 0 0.269717 0 0 0 0 0.766339 0 0 0 0.2 0"/>
<feBlend mode="normal" in2="BackgroundImageFix" result="effect1_dropShadow_2105_27617"/>
<feBlend mode="normal" in="SourceGraphic" in2="effect1_dropShadow_2105_27617" result="shape"/>
</filter>
<clipPath id="bgblur_1_2105_27617_clip_path" transform="translate(-8.31575 -49.4356)"><rect width="83.0042" height="110.023" rx="11.4391" transform="matrix(0.990748 -0.135715 0.135731 0.990746 15.3438 67.7288)"/>
</clipPath><filter id="filter5_d_2105_27617" x="22.0814" y="117.813" width="90.6029" height="48.0182" filterUnits="userSpaceOnUse" color-interpolation-filters="sRGB">
<feFlood flood-opacity="0" result="BackgroundImageFix"/>
<feColorMatrix in="SourceAlpha" type="matrix" values="0 0 0 0 0 0 0 0 0 0 0 0 0 0 0 0 0 0 127 0" result="hardAlpha"/>
<feOffset/>
<feGaussianBlur stdDeviation="0.96517"/>
<feComposite in2="hardAlpha" operator="out"/>
<feColorMatrix type="matrix" values="0 0 0 0 0 0 0 0 0 0.129181 0 0 0 0 0.367037 0 0 0 0.3 0"/>
<feBlend mode="normal" in2="BackgroundImageFix" result="effect1_dropShadow_2105_27617"/>
<feBlend mode="normal" in="SourceGraphic" in2="effect1_dropShadow_2105_27617" result="shape"/>
</filter>
<linearGradient id="paint0_linear_2105_27617" x1="28.3854" y1="0" x2="28.3854" y2="75.25" gradientUnits="userSpaceOnUse">
<stop stop-color="#E8F0FF"/>
<stop offset="1" stop-color="#4988FC"/>
</linearGradient>
<linearGradient id="paint1_linear_2105_27617" x1="41.5021" y1="0" x2="41.5021" y2="110.023" gradientUnits="userSpaceOnUse">
<stop stop-color="#FFE8E4"/>
<stop offset="1" stop-color="#D84026"/>
</linearGradient>
</defs>
</svg>
