<svg width="34" height="34" viewBox="0 0 34 34" fill="none" xmlns="http://www.w3.org/2000/svg">
<path d="M2.41073 12.2252L3.06481 13.8142H1.76038L2.41073 12.2252Z" fill="white"/>
<path d="M17.4742 13.1815C17.3428 13.261 17.1875 13.2636 17.0015 13.2636H15.8405V12.3783H17.0172C17.1838 12.3783 17.3576 12.3857 17.4704 12.4502C17.5944 12.5082 17.6711 12.6318 17.6711 12.8026C17.6711 12.9768 17.5981 13.1169 17.4742 13.1815Z" fill="white"/>
<path d="M25.0948 12.2252L25.7561 13.8142H24.4371L25.0948 12.2252Z" fill="white"/>
<path fill-rule="evenodd" clip-rule="evenodd" d="M0 16.3171H1.63292L2.00108 15.4318H2.82531L3.19251 16.3171H6.40516V15.6403L6.69193 16.32H8.35969L8.64646 15.6302V16.3171H16.6305L16.6268 14.8638H16.7812C16.8894 14.8676 16.921 14.8775 16.921 15.0556V16.3171H21.0504V15.9788C21.3835 16.1568 21.9015 16.3171 22.5832 16.3171H24.3204L24.6922 15.4318H25.5165L25.88 16.3171H29.2278V15.4762L29.7347 16.3171H32.4174V10.7578H29.7625V11.4144L29.3907 10.7578H26.6664V11.4144L26.325 10.7578H22.6452C22.0292 10.7578 21.4878 10.8435 21.0504 11.0824V10.7578H18.511V11.0824C18.2327 10.8362 17.8534 10.7578 17.4317 10.7578H8.15433L7.53184 12.1937L6.89259 10.7578H3.97044V11.4144L3.64943 10.7578H1.15731L0 13.401V16.3171ZM14.2227 15.5342H11.0303V11.5482H14.2227V12.3782H11.986V13.0967H14.169V13.9138H11.986V14.7098H14.2227V15.5342ZM9.3384 15.5342H10.318V11.5482H8.72689L7.57802 14.2522L6.32738 11.5482H4.76766V15.3221L3.14234 11.5482H1.72251L0.0112109 15.5342H1.04913L1.42007 14.6451H3.40981L3.77701 15.5342H5.72069V12.4096L7.11001 15.5342H7.94908L9.33478 12.4124L9.3384 15.5342ZM18.7238 12.6217C18.7238 13.2572 18.2984 13.5856 18.0505 13.6841C18.2596 13.7635 18.4382 13.9037 18.5232 14.0198C18.6581 14.2181 18.6814 14.3952 18.6814 14.7512V15.5342H17.7175L17.7139 15.0315C17.7139 15.0072 17.7141 14.9818 17.7144 14.9556C17.7165 14.7233 17.7193 14.4273 17.563 14.255C17.4234 14.1148 17.2105 14.0844 16.8665 14.0844H15.8406V15.5342H14.8851V11.5482H17.0831C17.5715 11.5482 17.9313 11.561 18.2403 11.7391C18.5426 11.9172 18.7238 12.1771 18.7238 12.6217ZM20.2532 15.5342H19.2781V11.5482H20.2532V15.5342ZM31.5655 15.5342H30.2113L28.3999 12.5425V15.5342H26.4537L26.0818 14.6451H24.0966L23.7358 15.5342H22.6176C22.1531 15.5342 21.565 15.4318 21.2319 15.0933C20.896 14.7549 20.7213 14.2965 20.7213 13.5716C20.7213 12.9805 20.8257 12.44 21.2365 12.013C21.5454 11.6949 22.0292 11.5482 22.6878 11.5482H23.6129V12.4023H22.7072C22.3584 12.4023 22.1615 12.454 21.9718 12.6384C21.8089 12.8062 21.6971 13.1235 21.6971 13.5413C21.6971 13.9684 21.7823 14.2763 21.9599 14.4774C22.107 14.6352 22.3744 14.683 22.6259 14.683H23.0551L24.402 11.5483H25.8339L27.4518 15.3185V11.5483H28.9069L30.5867 14.3244V11.5483H31.5655V15.5342Z" fill="white"/>
<path d="M21.093 20.129C21.2789 20.129 21.437 20.1225 21.5648 20.0469C21.6887 19.9722 21.7627 19.8348 21.7627 19.6642C21.7627 19.4936 21.6887 19.3701 21.5648 19.3055C21.4492 19.2371 21.2789 19.2335 21.1088 19.2335H19.932V20.129H21.093Z" fill="white"/>
<path d="M13.2476 20.4092L14.7148 22.0333V18.8368L13.2476 20.4092Z" fill="white"/>
<path d="M8.57614 21.565H10.9257L12.0173 20.3953L10.972 19.2334H8.57614V19.9583H10.6742V20.7717H8.57614V21.565Z" fill="white"/>
<path d="M15.6666 20.2488H16.9016C17.2688 20.2488 17.4972 20.0672 17.4972 19.7224C17.4972 19.3737 17.2577 19.2335 16.9127 19.2335H15.6666V20.2488Z" fill="white"/>
<path fill-rule="evenodd" clip-rule="evenodd" d="M34 21.8859C33.7679 22.2243 33.3155 22.3959 32.7032 22.3959H30.8577V21.5409H32.6957C32.878 21.5409 33.0056 21.517 33.0824 21.4422C33.149 21.3805 33.1954 21.291 33.1954 21.1822C33.1954 21.066 33.149 20.9738 33.0787 20.9185C33.0093 20.8577 32.9084 20.83 32.742 20.83C32.6833 20.828 32.6237 20.8264 32.5634 20.8248C31.703 20.8015 30.7252 20.7751 30.7252 19.596C30.7252 19.0177 31.0935 18.409 32.0964 18.409H33.9999V17.6157H32.2313C31.6976 17.6157 31.3099 17.7432 31.0353 17.9413V17.6157H28.4193C28.001 17.6157 27.5099 17.7191 27.2777 17.9413V17.6157H22.6062V17.9413C22.2345 17.6739 21.6072 17.6157 21.3176 17.6157H18.2363V17.9413C17.9422 17.6573 17.2881 17.6157 16.8894 17.6157H13.4409L12.6517 18.4672L11.9126 17.6157H6.76126V23.1789H11.8157L12.6288 22.314L13.3948 23.1789L16.5104 23.1817V21.873H16.8167C17.2301 21.8794 17.7176 21.8628 18.1478 21.6774V23.1788H20.7176V21.7288H20.8415C20.9997 21.7288 21.0153 21.7353 21.0153 21.8929V23.1787H28.8218C29.3175 23.1787 29.8355 23.0522 30.1224 22.8227V23.1787H32.5986C33.1139 23.1787 33.6171 23.1066 34 22.9222V21.8859ZM30.188 20.2931C30.3741 20.4851 30.4738 20.7274 30.4738 21.1378C30.4738 21.9955 29.9363 22.3959 28.9726 22.3959H27.1113V21.5409H28.9651C29.1464 21.5409 29.2749 21.517 29.3555 21.4422C29.4212 21.3805 29.4683 21.291 29.4683 21.1822C29.4683 21.066 29.4173 20.9738 29.3517 20.9185C29.2786 20.8577 29.1778 20.83 29.0114 20.83C28.9529 20.828 28.8934 20.8264 28.8333 20.8248C27.9759 20.8015 26.9985 20.775 26.9985 19.596C26.9985 19.0177 27.3629 18.409 28.3648 18.409H30.2806V19.2575H28.5276C28.3538 19.2575 28.2408 19.264 28.1447 19.3296C28.0401 19.3941 28.0012 19.4899 28.0012 19.6164C28.0012 19.7668 28.0901 19.8691 28.2103 19.9134C28.3111 19.9484 28.4194 19.9586 28.5822 19.9586L29.0967 19.9724C29.6155 19.985 29.9716 20.0745 30.188 20.2931ZM22.142 20.543C22.3547 20.6213 22.5286 20.7616 22.6101 20.8777C22.745 21.0724 22.7646 21.2541 22.7684 21.6055V22.3959H21.809V21.897C21.809 21.8731 21.8093 21.848 21.8095 21.822C21.8116 21.588 21.8144 21.2835 21.6545 21.1166C21.5149 20.9738 21.3021 20.9397 20.9534 20.9397H19.9322V22.3959H18.9719V18.4089H21.1782C21.662 18.4089 22.0144 18.4301 22.328 18.597C22.6296 18.7787 22.8193 19.0276 22.8193 19.4824C22.8192 20.1187 22.3935 20.4435 22.142 20.543ZM23.3492 18.4089H26.5387V19.2334H24.3009V19.9582H26.4841V20.7717H24.3009V21.565L26.5387 21.5686V22.3959H23.3492V18.4089ZM18.5232 19.7223C18.5232 20.8299 17.6944 21.0586 16.859 21.0586H15.6666V22.3959H13.8092L12.6324 21.076L11.4095 22.3959H7.6242V18.4089H11.4678L12.6435 19.7157L13.8591 18.4089H16.9127C17.6711 18.4089 18.5232 18.6182 18.5232 19.7223Z" fill="white"/>
<path d="M32.2583 19.2573H34V20.3918C33.9984 20.3898 33.9969 20.3878 33.9953 20.3858L33.9904 20.3793L33.9878 20.3759L33.9877 20.3758C33.9657 20.3471 33.944 20.3187 33.9114 20.2931C33.6986 20.0746 33.3498 19.985 32.8271 19.9722L32.3092 19.9583C32.15 19.9583 32.0417 19.9481 31.9409 19.9131C31.8171 19.8689 31.7319 19.7666 31.7319 19.6162C31.7319 19.4897 31.7708 19.3939 31.8716 19.3293C31.9689 19.2638 32.0844 19.2573 32.2583 19.2573Z" fill="white"/>
</svg>
