<svg width="24" height="24" viewBox="0 0 24 24" fill="none" xmlns="http://www.w3.org/2000/svg">
<path d="M1.70169 8.62953L2.16339 9.75122H1.24262L1.70169 8.62953Z" fill="#006FCF"/>
<path d="M12.3347 9.30459C12.242 9.36069 12.1324 9.36256 12.001 9.36256H11.1815V8.7376H12.0122C12.1297 8.7376 12.2524 8.74286 12.3321 8.78835C12.4196 8.82934 12.4737 8.91658 12.4737 9.03709C12.4737 9.16007 12.4222 9.25902 12.3347 9.30459Z" fill="#006FCF"/>
<path d="M17.714 8.62953L18.1808 9.75122H17.2497L17.714 8.62953Z" fill="#006FCF"/>
<path fill-rule="evenodd" clip-rule="evenodd" d="M0 11.518H1.15265L1.41253 10.893H1.99434L2.25354 11.518H4.52129V11.0402L4.72371 11.52H5.90096L6.10338 11.0331V11.518H11.7392L11.7365 10.4921H11.8456C11.9219 10.4947 11.9442 10.5018 11.9442 10.6275V11.518H14.8591V11.2792C15.0942 11.4048 15.4599 11.518 15.9411 11.518H17.1674L17.4298 10.893H18.0116L18.2683 11.518H20.6314V10.9243L20.9892 11.518H22.8828V7.59375H21.0088V8.05721L20.7464 7.59375H18.8233V8.05721L18.5824 7.59375H15.9848C15.55 7.59375 15.1678 7.65426 14.8591 7.82289V7.59375H13.0666V7.82289C12.8701 7.64908 12.6024 7.59375 12.3047 7.59375H5.756L5.31659 8.60731L4.86536 7.59375H2.80266V8.05721L2.57607 7.59375H0.816922L0 9.45954V11.518ZM10.0395 10.9653H7.78609V8.15166H10.0395V8.73758H8.46069V9.24474H10.0017V9.82149H8.46069V10.3834H10.0395V10.9653ZM6.59181 10.9653H7.28326V8.15166H6.16016L5.34919 10.0604L4.46638 8.15166H3.36541V10.8156L2.21812 8.15166H1.21589L0.00791359 10.9653H0.740564L1.0024 10.3377H2.40693L2.66612 10.9653H4.03813V8.75973L5.01883 10.9653H5.61111L6.58926 8.76168L6.59181 10.9653ZM13.2168 8.90943C13.2168 9.35804 12.9165 9.58981 12.7415 9.6594C12.8891 9.71541 13.0152 9.81437 13.0752 9.89635C13.1704 10.0363 13.1869 10.1613 13.1869 10.4126V10.9653H12.5065L12.5039 10.6105C12.5039 10.5933 12.5041 10.5754 12.5043 10.5569C12.5058 10.3929 12.5077 10.184 12.3974 10.0623C12.2989 9.96339 12.1486 9.94192 11.9058 9.94192H11.1816V10.9653H10.5071V8.15166H12.0586C12.4034 8.15166 12.6574 8.16074 12.8755 8.28643C13.0889 8.41211 13.2168 8.5956 13.2168 8.90943ZM14.2964 10.9653H13.608V8.15166H14.2964V10.9653ZM22.2815 10.9653H21.3256L20.047 8.85351V10.9653H18.6732L18.4107 10.3377H17.0094L16.7547 10.9653H15.9654C15.6375 10.9653 15.2223 10.893 14.9872 10.6541C14.7501 10.4152 14.6268 10.0916 14.6268 9.57996C14.6268 9.16267 14.7005 8.7812 14.9904 8.47975C15.2085 8.2552 15.55 8.15166 16.0149 8.15166H16.668V8.75455H16.0286C15.7824 8.75455 15.6434 8.79104 15.5095 8.92123C15.3945 9.0397 15.3156 9.26367 15.3156 9.55858C15.3156 9.86002 15.3757 10.0774 15.5011 10.2193C15.6049 10.3307 15.7937 10.3645 15.9712 10.3645H16.2742L17.2249 8.15174H18.2357L19.3778 10.8131V8.15174H20.4048L21.5906 10.1113V8.15174H22.2815V10.9653Z" fill="#006FCF"/>
<path d="M14.8891 14.2087C15.0204 14.2087 15.132 14.2041 15.2222 14.1507C15.3097 14.098 15.3619 14.001 15.3619 13.8806C15.3619 13.7602 15.3097 13.673 15.2222 13.6274C15.1406 13.5792 15.0204 13.5766 14.9003 13.5766H14.0697V14.2087H14.8891Z" fill="#006FCF"/>
<path d="M9.35123 14.4065L10.3869 15.5529V13.2965L9.35123 14.4065Z" fill="#006FCF"/>
<path d="M6.05375 15.2223H7.71228L8.48281 14.3967L7.74496 13.5765H6.05375V14.0882H7.53471V14.6624H6.05375V15.2223Z" fill="#006FCF"/>
<path d="M11.0588 14.2933H11.9305C12.1897 14.2933 12.351 14.1651 12.351 13.9217C12.351 13.6756 12.1819 13.5766 11.9384 13.5766H11.0588V14.2933Z" fill="#006FCF"/>
<path fill-rule="evenodd" clip-rule="evenodd" d="M24 15.4488C23.8361 15.6877 23.5168 15.8088 23.0846 15.8088H21.7819V15.2054H23.0793C23.208 15.2054 23.2981 15.1885 23.3523 15.1357C23.3993 15.0921 23.4321 15.0289 23.4321 14.9521C23.4321 14.8701 23.3993 14.805 23.3497 14.766C23.3007 14.7231 23.2295 14.7035 23.112 14.7035C23.0706 14.7021 23.0285 14.701 22.986 14.6999C22.3786 14.6834 21.6884 14.6648 21.6884 13.8325C21.6884 13.4243 21.9484 12.9946 22.6562 12.9946H23.9999V12.4346H22.7515C22.3748 12.4346 22.1011 12.5246 21.9073 12.6644V12.4346H20.0607C19.7654 12.4346 19.4188 12.5076 19.2548 12.6644V12.4346H15.9573V12.6644C15.6949 12.4757 15.2521 12.4346 15.0477 12.4346H12.8727V12.6644C12.6651 12.464 12.2034 12.4346 11.9219 12.4346H9.48769L8.93064 13.0357L8.40893 12.4346H4.77266V16.3616H8.34049L8.91447 15.751L9.45517 16.3616L11.6544 16.3635V15.4398H11.8706C12.1624 15.4443 12.5066 15.4325 12.8102 15.3017V16.3615H14.6242V15.338H14.7117C14.8233 15.338 14.8343 15.3426 14.8343 15.4538V16.3614H20.3448C20.6947 16.3614 21.0604 16.2721 21.2629 16.1101V16.3614H23.0108C23.3745 16.3614 23.7297 16.3106 24 16.1804V15.4488ZM21.3092 14.3245C21.4405 14.46 21.5109 14.6311 21.5109 14.9208C21.5109 15.5262 21.1315 15.8088 20.4512 15.8088H19.1374V15.2053H20.446C20.5739 15.2053 20.6646 15.1885 20.7215 15.1357C20.7679 15.0921 20.8012 15.0289 20.8012 14.9521C20.8012 14.8701 20.7652 14.805 20.7189 14.766C20.6673 14.7231 20.5961 14.7035 20.4786 14.7035C20.4373 14.7021 20.3953 14.701 20.3529 14.6998C19.7477 14.6834 19.0578 14.6647 19.0578 13.8325C19.0578 13.4243 19.315 12.9946 20.0222 12.9946H21.3746V13.5936H20.1371C20.0145 13.5936 19.9347 13.5981 19.8669 13.6444C19.793 13.69 19.7656 13.7576 19.7656 13.8469C19.7656 13.9531 19.8283 14.0253 19.9132 14.0565C19.9843 14.0812 20.0608 14.0884 20.1757 14.0884L20.5388 14.0982C20.905 14.1071 21.1564 14.1702 21.3092 14.3245ZM15.6296 14.501C15.7798 14.5562 15.9025 14.6552 15.9601 14.7372C16.0553 14.8746 16.0691 15.0029 16.0718 15.2509V15.8088H15.3946V15.4567C15.3946 15.4398 15.3948 15.4221 15.3949 15.4038C15.3965 15.2386 15.3984 15.0237 15.2856 14.9059C15.187 14.805 15.0367 14.7809 14.7907 14.7809H14.0698V15.8088H13.3919V12.9945H14.9493C15.2908 12.9945 15.5396 13.0095 15.761 13.1273C15.9739 13.2555 16.1078 13.4312 16.1078 13.7523C16.1077 14.2015 15.8072 14.4307 15.6296 14.501ZM16.4818 12.9945H18.7332V13.5765H17.1536V14.0882H18.6946V14.6624H17.1536V15.2223L18.7332 15.2249V15.8088H16.4818V12.9945ZM13.0752 13.9217C13.0752 14.7034 12.4901 14.8649 11.9005 14.8649H11.0588V15.8088H9.74765L8.91702 14.8772L8.05379 15.8088H5.38179V12.9945H8.09491L8.92485 13.917L9.78289 12.9945H11.9384C12.4737 12.9945 13.0752 13.1422 13.0752 13.9217Z" fill="#006FCF"/>
<path d="M22.7706 13.5934H24V14.3942C23.9989 14.3928 23.9978 14.3914 23.9967 14.39L23.9932 14.3854L23.9914 14.383L23.9913 14.3829C23.9758 14.3626 23.9605 14.3426 23.9374 14.3245C23.7873 14.1703 23.541 14.1071 23.1721 14.098L22.8065 14.0882C22.6941 14.0882 22.6177 14.081 22.5465 14.0563C22.4591 14.0251 22.399 13.9529 22.399 13.8467C22.399 13.7574 22.4264 13.6898 22.4976 13.6442C22.5663 13.598 22.6478 13.5934 22.7706 13.5934Z" fill="#006FCF"/>
</svg>
