<svg width="34" height="34" viewBox="0 0 34 34" fill="none" xmlns="http://www.w3.org/2000/svg">
<path d="M10.2796 30.0826V28.334C10.2899 28.1869 10.2686 28.0393 10.2174 27.9011C10.1661 27.7629 10.0859 27.6372 9.98222 27.5324C9.87852 27.4276 9.75367 27.3461 9.61599 27.2933C9.47831 27.2406 9.33097 27.2178 9.1838 27.2265C8.99118 27.214 8.79873 27.2533 8.6265 27.3405C8.45427 27.4276 8.30856 27.5593 8.20456 27.722C8.10979 27.5642 7.97422 27.4349 7.81214 27.3477C7.65006 27.2605 7.46746 27.2186 7.28358 27.2265C7.1233 27.2184 6.9637 27.2524 6.82057 27.325C6.67744 27.3976 6.55576 27.5063 6.46756 27.6404V27.2965H5.86133V30.0826H6.47336V28.538C6.46013 28.4427 6.46816 28.3456 6.4969 28.2538C6.52563 28.162 6.57435 28.0776 6.63955 28.0069C6.70475 27.9361 6.78482 27.8806 6.874 27.8445C6.96318 27.8083 7.05926 27.7924 7.15534 27.7978C7.55753 27.7978 7.76157 28.0601 7.76157 28.5322V30.0826H8.37361V28.538C8.36137 28.4429 8.3701 28.3462 8.3992 28.2548C8.4283 28.1634 8.47707 28.0795 8.54206 28.0089C8.60706 27.9384 8.68671 27.8829 8.77543 27.8465C8.86414 27.81 8.95977 27.7934 9.05559 27.7978C9.46939 27.7978 9.6676 28.0601 9.6676 28.5322V30.0826H10.2796ZM13.6954 28.6895V27.2965H13.0891V27.6345C12.9857 27.5012 12.8518 27.3945 12.6986 27.3236C12.5455 27.2526 12.3776 27.2193 12.2089 27.2265C11.8333 27.2449 11.4792 27.4071 11.2199 27.6795C10.9605 27.9518 10.8159 28.3135 10.8159 28.6896C10.8159 29.0656 10.9605 29.4273 11.2199 29.6997C11.4792 29.972 11.8333 30.1342 12.2089 30.1526C12.3776 30.1598 12.5455 30.1266 12.6986 30.0556C12.8518 29.9846 12.9857 29.8779 13.0891 29.7446V30.0826H13.6954V28.6895ZM11.4396 28.6895C11.449 28.5251 11.5063 28.3671 11.6045 28.2348C11.7027 28.1026 11.8374 28.002 11.992 27.9454C12.1467 27.8889 12.3145 27.8788 12.4748 27.9165C12.6351 27.9541 12.7809 28.0379 12.8942 28.1574C13.0075 28.277 13.0833 28.427 13.1123 28.5891C13.1413 28.7512 13.1222 28.9183 13.0574 29.0697C12.9926 29.2211 12.8849 29.3502 12.7476 29.4411C12.6103 29.532 12.4494 29.5808 12.2847 29.5813C12.1693 29.5829 12.0548 29.5605 11.9485 29.5156C11.8421 29.4708 11.7462 29.4043 11.6668 29.3205C11.5874 29.2368 11.5263 29.1374 11.4871 29.0288C11.448 28.9202 11.4318 28.8047 11.4396 28.6895ZM26.6666 27.2232C26.8713 27.2212 27.0745 27.2593 27.2645 27.3353C27.4417 27.406 27.6033 27.5107 27.7402 27.6436C27.8749 27.7758 27.9817 27.9336 28.0544 28.1077C28.2058 28.4808 28.2058 28.8982 28.0544 29.2714C27.9818 29.4455 27.8749 29.6034 27.7402 29.7355C27.6033 29.8684 27.4417 29.9732 27.2645 30.0438C26.88 30.1933 26.4533 30.1933 26.0687 30.0438C25.8919 29.9734 25.7307 29.8686 25.5945 29.7355C25.4606 29.603 25.3543 29.4453 25.2817 29.2714C25.1305 28.8982 25.1305 28.4808 25.2817 28.1077C25.3543 27.9339 25.4606 27.7761 25.5945 27.6436C25.7307 27.5106 25.8919 27.4058 26.0687 27.3353C26.2588 27.2593 26.4619 27.2212 26.6666 27.2232ZM26.6666 27.7964C26.5481 27.7953 26.4305 27.8176 26.3205 27.8619C26.2168 27.9035 26.1228 27.9658 26.0441 28.0451C25.9649 28.1261 25.9026 28.2221 25.8608 28.3274C25.7715 28.5606 25.7715 28.8186 25.8608 29.0518C25.9025 29.1571 25.9649 29.253 26.0441 29.334C26.1228 29.4133 26.2168 29.4757 26.3205 29.5173C26.543 29.6046 26.7903 29.6046 27.0128 29.5173C27.1168 29.4755 27.2113 29.4131 27.2907 29.334C27.3706 29.2533 27.4335 29.1573 27.4755 29.0518C27.5647 28.8186 27.5647 28.5606 27.4755 28.3274C27.4335 28.2218 27.3706 28.1258 27.2907 28.0451C27.2113 27.966 27.1168 27.9037 27.0128 27.8619C26.9028 27.8176 26.7852 27.7953 26.6666 27.7964ZM16.994 28.6895C16.9882 27.821 16.4519 27.2265 15.6708 27.2265C15.2927 27.2463 14.937 27.4118 14.6784 27.6883C14.4197 27.9647 14.2781 28.3306 14.2834 28.7092C14.2887 29.0877 14.4404 29.4496 14.7067 29.7187C14.973 29.9878 15.3331 30.1433 15.7116 30.1526C16.1275 30.1672 16.5342 30.0282 16.8541 29.7621L16.5568 29.3132C16.3266 29.4977 16.0415 29.6002 15.7466 29.6047C15.5463 29.6215 15.3473 29.5598 15.1917 29.4325C15.0361 29.3052 14.9362 29.1224 14.913 28.9227H16.9823C16.9882 28.8469 16.994 28.7712 16.994 28.6895ZM14.9189 28.4447C14.9295 28.2577 15.0129 28.0822 15.1513 27.9559C15.2896 27.8295 15.4719 27.7623 15.6592 27.7686C15.8423 27.765 16.0193 27.8342 16.1515 27.9609C16.2837 28.0877 16.3603 28.2616 16.3645 28.4447H14.9189ZM19.5469 28.0076C19.2824 27.8555 18.9835 27.7732 18.6784 27.7686C18.3461 27.7686 18.148 27.891 18.148 28.095C18.148 28.2816 18.3578 28.334 18.6201 28.3689L18.9057 28.4097C19.5119 28.4972 19.8791 28.7536 19.8791 29.2433C19.8791 29.7737 19.4128 30.1526 18.6084 30.1526C18.1779 30.1645 17.7549 30.0378 17.4019 29.7912L17.6875 29.3191C17.955 29.5174 18.2814 29.6201 18.6143 29.6105C19.0281 29.6105 19.2496 29.4881 19.2496 29.2724C19.2496 29.1151 19.0922 29.0276 18.76 28.981L18.4744 28.9402C17.8507 28.8528 17.5126 28.573 17.5126 28.1183C17.5126 27.5646 17.9672 27.2265 18.6726 27.2265C19.0715 27.2127 19.4661 27.3139 19.8092 27.518L19.5469 28.0076ZM22.4597 27.8502H21.4688V29.1093C21.4688 29.389 21.5679 29.5756 21.871 29.5756C22.0602 29.5693 22.2447 29.5151 22.4073 29.4182L22.5821 29.937C22.3549 30.0787 22.0922 30.1534 21.8244 30.1526C21.1075 30.1526 20.8568 29.7679 20.8568 29.1209V27.8502H20.2914V27.2965H20.8568L20.8567 26.4513H21.4687L21.4688 27.2965H22.4597V27.8502ZM24.5576 27.2265C24.7047 27.2271 24.8506 27.2527 24.989 27.3023L24.8025 27.8735C24.682 27.8256 24.5533 27.8018 24.4236 27.8036C24.0272 27.8036 23.829 28.0601 23.829 28.5205V30.0826H23.2229V27.2965H23.8233V27.6345C23.8976 27.5067 24.0051 27.4014 24.1344 27.3296C24.2636 27.2577 24.4098 27.2221 24.5576 27.2265ZM28.7544 29.6771C28.7921 29.6768 28.8295 29.6842 28.8642 29.6988C28.8976 29.7128 28.9281 29.733 28.954 29.7583C28.9796 29.7836 29.0001 29.8136 29.0144 29.8467C29.029 29.8807 29.0365 29.9172 29.0365 29.9542C29.0365 29.9912 29.029 30.0278 29.0144 30.0618C29 30.0947 28.9795 30.1246 28.954 30.1498C28.928 30.1751 28.8976 30.1954 28.8642 30.2096C28.8295 30.2244 28.7922 30.2319 28.7544 30.2317C28.6989 30.2322 28.6444 30.2164 28.5978 30.1862C28.5513 30.156 28.5146 30.1127 28.4925 30.0618C28.4779 30.0278 28.4704 29.9912 28.4704 29.9542C28.4704 29.9173 28.4779 29.8807 28.4925 29.8467C28.5067 29.8136 28.5271 29.7836 28.5526 29.7583C28.5785 29.7328 28.6091 29.7126 28.6427 29.6988C28.6781 29.6842 28.7161 29.6768 28.7544 29.6771ZM28.7544 30.1705C28.7832 30.1707 28.8117 30.1649 28.8381 30.1535C28.8634 30.1425 28.8865 30.1268 28.906 30.1073C28.931 30.0823 28.9496 30.0516 28.96 30.0178C28.9703 29.984 28.9723 29.9481 28.9656 29.9134C28.9588 29.8787 28.9437 29.8461 28.9215 29.8186C28.8993 29.7911 28.8706 29.7695 28.8381 29.7556C28.8116 29.7444 28.7832 29.7387 28.7544 29.7389C28.7252 29.7387 28.6962 29.7444 28.6691 29.7556C28.6434 29.7662 28.62 29.7818 28.6002 29.8014C28.5599 29.8421 28.5372 29.8971 28.5372 29.9544C28.5372 30.0116 28.5599 30.0666 28.6002 30.1073C28.6205 30.1275 28.6445 30.1434 28.671 30.1543C28.6975 30.1651 28.7258 30.1706 28.7544 30.1705ZM28.7708 29.8245C28.7981 29.8227 28.8251 29.8306 28.8473 29.8467C28.8561 29.8539 28.8631 29.8631 28.8677 29.8736C28.8724 29.884 28.8746 29.8954 28.8741 29.9068C28.8744 29.9166 28.8726 29.9263 28.8689 29.9354C28.8653 29.9444 28.8597 29.9526 28.8527 29.9594C28.8358 29.9744 28.8144 29.9834 28.7918 29.9849L28.8761 30.0821H28.8102L28.732 29.9856H28.7069V30.0821H28.6518V29.8245H28.7708ZM28.7069 29.8728V29.9415H28.7701C28.7823 29.9421 28.7943 29.9391 28.8048 29.9329C28.809 29.9301 28.8125 29.9262 28.8147 29.9216C28.817 29.917 28.818 29.9119 28.8177 29.9068C28.8179 29.9018 28.8169 29.8968 28.8146 29.8923C28.8124 29.8878 28.809 29.884 28.8048 29.8813C28.7943 29.8751 28.7822 29.8722 28.7701 29.8728H28.7069Z" fill="white"/>
<path d="M21.598 6.03159H12.4043V22.553H21.598V6.03159Z" fill="#7375CF"/>
<path d="M12.9871 14.2923C12.9857 12.7012 13.3463 11.1306 14.0415 9.69938C14.7368 8.2682 15.7486 7.01394 17.0003 6.03159C15.4502 4.81324 13.5887 4.05556 11.6284 3.84516C9.66817 3.63477 7.68825 3.98014 5.91498 4.8418C4.14171 5.70346 2.64665 7.04664 1.60067 8.71783C0.554691 10.389 0 12.3208 0 14.2923C0 16.2638 0.554691 18.1956 1.60067 19.8668C2.64665 21.538 4.14171 22.8812 5.91498 23.7428C7.68825 24.6045 9.66817 24.9498 11.6284 24.7394C13.5887 24.529 15.4502 23.7714 17.0003 22.553C15.7486 21.5707 14.7368 20.3164 14.0415 18.8852C13.3463 17.454 12.9857 15.8834 12.9871 14.2923Z" fill="#EB001B"/>
<path d="M33.9997 14.2923C33.9998 16.2638 33.4452 18.1956 32.3993 19.8667C31.3533 21.5379 29.8583 22.8811 28.0851 23.7428C26.3119 24.6045 24.332 24.9498 22.3717 24.7394C20.4115 24.529 18.55 23.7714 17 22.553C18.2506 21.5697 19.2616 20.3152 19.9567 18.8843C20.6519 17.4533 21.0131 15.8832 21.0131 14.2923C21.0131 12.7014 20.6519 11.1313 19.9567 9.70035C19.2616 8.26939 18.2506 7.01493 17 6.03159C18.55 4.81323 20.4115 4.05556 22.3717 3.84516C24.332 3.63477 26.3119 3.98014 28.0851 4.84181C29.8583 5.70348 31.3533 7.04667 32.3993 8.71786C33.4452 10.389 33.9998 12.3208 33.9997 14.2923Z" fill="#00A2E5"/>
</svg>
