<svg width="24" height="24" viewBox="0 0 24 24" fill="none" xmlns="http://www.w3.org/2000/svg">
<path d="M7.25551 21.2349V20.0006C7.26274 19.8968 7.24776 19.7926 7.21156 19.695C7.17536 19.5974 7.11878 19.5087 7.04558 19.4347C6.97239 19.3608 6.88425 19.3032 6.78707 19.266C6.68989 19.2288 6.58588 19.2127 6.48199 19.2188C6.34603 19.21 6.21018 19.2378 6.08861 19.2993C5.96703 19.3608 5.86418 19.4538 5.79076 19.5686C5.72387 19.4572 5.62817 19.3659 5.51376 19.3044C5.39935 19.2428 5.27046 19.2133 5.14066 19.2188C5.02752 19.2131 4.91486 19.2371 4.81383 19.2884C4.7128 19.3396 4.6269 19.4163 4.56465 19.511V19.2682H4.13672V21.2349H4.56874V20.1446C4.5594 20.0773 4.56507 20.0088 4.58536 19.944C4.60564 19.8792 4.64003 19.8196 4.68605 19.7697C4.73208 19.7197 4.7886 19.6806 4.85155 19.6551C4.9145 19.6295 4.98232 19.6183 5.05014 19.6221C5.33404 19.6221 5.47807 19.8072 5.47807 20.1405V21.2349H5.9101V20.1446C5.90145 20.0775 5.90762 20.0092 5.92816 19.9447C5.9487 19.8802 5.98312 19.8209 6.029 19.7711C6.07488 19.7214 6.13111 19.6822 6.19373 19.6564C6.25635 19.6307 6.32385 19.619 6.39149 19.6221C6.68359 19.6221 6.8235 19.8072 6.8235 20.1405V21.2349H7.25551ZM9.66663 20.2516V19.2682H9.2387V19.5068C9.16565 19.4127 9.07114 19.3375 8.96304 19.2873C8.85495 19.2372 8.73643 19.2137 8.61739 19.2188C8.35225 19.2318 8.10227 19.3463 7.91922 19.5386C7.73617 19.7308 7.63406 19.9861 7.63406 20.2516C7.63406 20.517 7.73617 20.7723 7.91922 20.9646C8.10227 21.1569 8.35225 21.2713 8.61739 21.2843C8.73643 21.2894 8.85495 21.2659 8.96304 21.2158C9.07114 21.1657 9.16566 21.0904 9.2387 20.9963V21.2349H9.66663V20.2516ZM8.07432 20.2516C8.08096 20.1355 8.12142 20.0239 8.19072 19.9306C8.26001 19.8373 8.3551 19.7663 8.46427 19.7263C8.57344 19.6864 8.69191 19.6793 8.80507 19.7059C8.91823 19.7325 9.02113 19.7916 9.10109 19.876C9.18105 19.9603 9.23456 20.0663 9.25504 20.1807C9.27551 20.2951 9.26205 20.413 9.21631 20.5199C9.17058 20.6268 9.09456 20.7179 8.99764 20.7821C8.90072 20.8463 8.78714 20.8807 8.6709 20.8811C8.58942 20.8822 8.50861 20.8664 8.43354 20.8347C8.35847 20.803 8.29078 20.7561 8.23473 20.697C8.17868 20.6378 8.13549 20.5677 8.10788 20.4911C8.08027 20.4144 8.06885 20.3329 8.07432 20.2516ZM18.8228 19.2165C18.9673 19.2151 19.1107 19.242 19.2449 19.2956C19.3699 19.3455 19.484 19.4195 19.5806 19.5133C19.6757 19.6066 19.7511 19.7179 19.8024 19.8408C19.9093 20.1042 19.9093 20.3989 19.8024 20.6623C19.7511 20.7852 19.6757 20.8966 19.5806 20.9899C19.484 21.0837 19.3699 21.1577 19.2449 21.2075C18.9734 21.313 18.6723 21.313 18.4008 21.2075C18.2759 21.1578 18.1621 21.0838 18.066 20.9899C17.9715 20.8964 17.8964 20.785 17.8452 20.6623C17.7385 20.3989 17.7385 20.1043 17.8452 19.8408C17.8965 19.7181 17.9715 19.6068 18.066 19.5133C18.1621 19.4194 18.2759 19.3454 18.4008 19.2956C18.535 19.242 18.6783 19.2151 18.8228 19.2165ZM18.8228 19.6211C18.7391 19.6204 18.6561 19.6361 18.5785 19.6673C18.5053 19.6967 18.4389 19.7407 18.3834 19.7967C18.3275 19.8539 18.2835 19.9216 18.254 19.9959C18.191 20.1606 18.191 20.3427 18.254 20.5073C18.2835 20.5816 18.3274 20.6493 18.3834 20.7065C18.4389 20.7625 18.5053 20.8065 18.5785 20.8359C18.7356 20.8975 18.9101 20.8975 19.0672 20.8359C19.1406 20.8063 19.2073 20.7623 19.2633 20.7065C19.3197 20.6495 19.3641 20.5818 19.3938 20.5073C19.4568 20.3427 19.4568 20.1606 19.3938 19.9959C19.3641 19.9214 19.3197 19.8537 19.2633 19.7967C19.2073 19.7408 19.1406 19.6969 19.0672 19.6673C18.9895 19.6361 18.9065 19.6204 18.8228 19.6211ZM11.9951 20.2516C11.991 19.6385 11.6124 19.2188 11.0611 19.2188C10.7942 19.2328 10.5431 19.3497 10.3605 19.5448C10.1779 19.7399 10.078 19.9982 10.0817 20.2654C10.0854 20.5327 10.1925 20.788 10.3805 20.978C10.5685 21.168 10.8227 21.2778 11.0899 21.2843C11.3834 21.2946 11.6705 21.1965 11.8963 21.0086L11.6865 20.6918C11.524 20.822 11.3228 20.8944 11.1146 20.8975C10.9732 20.9094 10.8327 20.8658 10.7229 20.776C10.613 20.6861 10.5425 20.5571 10.5262 20.4161H11.9868C11.9909 20.3627 11.9951 20.3092 11.9951 20.2516ZM10.5303 20.0788C10.5378 19.9467 10.5967 19.8229 10.6943 19.7337C10.792 19.6445 10.9207 19.597 11.0528 19.6015C11.1821 19.599 11.3071 19.6478 11.4004 19.7373C11.4937 19.8267 11.5478 19.9495 11.5507 20.0788H10.5303ZM13.7971 19.7702C13.6104 19.6628 13.3994 19.6047 13.1841 19.6015C12.9495 19.6015 12.8096 19.6879 12.8096 19.8319C12.8096 19.9636 12.9578 20.0006 13.1429 20.0253L13.3445 20.0541C13.7724 20.1158 14.0316 20.2968 14.0316 20.6424C14.0316 21.0169 13.7025 21.2843 13.1347 21.2843C12.8308 21.2927 12.5322 21.2033 12.283 21.0292L12.4846 20.6959C12.6734 20.836 12.9038 20.9084 13.1388 20.9017C13.4309 20.9017 13.5873 20.8153 13.5873 20.663C13.5873 20.5519 13.4762 20.4902 13.2417 20.4573L13.04 20.4285C12.5998 20.3668 12.3612 20.1693 12.3612 19.8483C12.3612 19.4575 12.6821 19.2188 13.1799 19.2188C13.4616 19.2091 13.7401 19.2805 13.9823 19.4246L13.7971 19.7702ZM15.8532 19.6591H15.1538V20.5479C15.1538 20.7453 15.2237 20.877 15.4377 20.877C15.5712 20.8726 15.7015 20.8343 15.8162 20.7659L15.9396 21.1321C15.7792 21.2321 15.5938 21.2849 15.4048 21.2843C14.8987 21.2843 14.7218 21.0128 14.7218 20.556V19.6591H14.3226V19.2682H14.7218L14.7217 18.6716H15.1537L15.1538 19.2682H15.8532V19.6591ZM17.3341 19.2188C17.4379 19.2192 17.5409 19.2373 17.6386 19.2724L17.5069 19.6756C17.4219 19.6417 17.331 19.6249 17.2395 19.6262C16.9597 19.6262 16.8198 19.8072 16.8198 20.1322V21.2349H16.3919V19.2682H16.8157V19.5068C16.8682 19.4166 16.9441 19.3423 17.0353 19.2916C17.1266 19.2409 17.2298 19.2158 17.3341 19.2188ZM20.2966 20.9487C20.3232 20.9485 20.3495 20.9537 20.3741 20.964C20.3976 20.9739 20.4191 20.9881 20.4374 21.006C20.4555 21.0238 20.47 21.045 20.4801 21.0684C20.4904 21.0924 20.4957 21.1182 20.4957 21.1443C20.4957 21.1704 20.4904 21.1962 20.4801 21.2202C20.4699 21.2434 20.4554 21.2645 20.4374 21.2823C20.4191 21.3002 20.3976 21.3145 20.3741 21.3245C20.3496 21.335 20.3232 21.3403 20.2966 21.3401C20.2574 21.3405 20.2189 21.3294 20.186 21.308C20.1531 21.2867 20.1273 21.2562 20.1116 21.2202C20.1014 21.1962 20.0961 21.1704 20.0961 21.1443C20.0961 21.1182 20.1014 21.0924 20.1116 21.0684C20.1217 21.045 20.1361 21.0239 20.1541 21.006C20.1723 20.988 20.1939 20.9737 20.2177 20.964C20.2427 20.9537 20.2695 20.9484 20.2966 20.9487ZM20.2966 21.297C20.3169 21.2971 20.337 21.293 20.3556 21.285C20.3735 21.2772 20.3898 21.2661 20.4035 21.2523C20.4212 21.2347 20.4343 21.213 20.4416 21.1892C20.449 21.1653 20.4503 21.14 20.4456 21.1155C20.4409 21.091 20.4302 21.068 20.4145 21.0486C20.3988 21.0291 20.3786 21.0139 20.3556 21.0041C20.3369 20.9961 20.3168 20.9921 20.2966 20.9923C20.2759 20.9922 20.2554 20.9962 20.2364 21.0041C20.2182 21.0116 20.2016 21.0226 20.1877 21.0364C20.1592 21.0651 20.1432 21.1039 20.1432 21.1444C20.1432 21.1848 20.1592 21.2236 20.1877 21.2523C20.202 21.2666 20.219 21.2779 20.2377 21.2855C20.2564 21.2932 20.2764 21.2971 20.2966 21.297ZM20.3081 21.0527C20.3274 21.0515 20.3465 21.057 20.3621 21.0684C20.3683 21.0735 20.3733 21.08 20.3765 21.0874C20.3798 21.0947 20.3814 21.1028 20.381 21.1108C20.3812 21.1177 20.38 21.1246 20.3774 21.131C20.3748 21.1374 20.3709 21.1432 20.3659 21.148C20.354 21.1586 20.3389 21.1649 20.323 21.166L20.3824 21.2346H20.3359L20.2808 21.1664H20.263V21.2346H20.2241V21.0527H20.3081ZM20.263 21.0868V21.1353H20.3076C20.3162 21.1357 20.3247 21.1336 20.3321 21.1292C20.3351 21.1272 20.3375 21.1245 20.3391 21.1213C20.3407 21.118 20.3414 21.1144 20.3412 21.1108C20.3414 21.1073 20.3406 21.1037 20.3391 21.1006C20.3375 21.0974 20.3351 21.0947 20.3321 21.0928C20.3247 21.0885 20.3162 21.0864 20.3076 21.0868H20.263Z" fill="black"/>
<path d="M15.2456 4.25757H8.75586V15.9198H15.2456V4.25757Z" fill="#7375CF"/>
<path d="M9.1674 10.0887C9.16638 8.96553 9.42089 7.85687 9.91168 6.84662C10.4025 5.83637 11.1167 4.95102 12.0002 4.25759C10.9061 3.39758 9.59204 2.86275 8.20831 2.71423C6.82459 2.56572 5.427 2.80951 4.17528 3.41774C2.92356 4.02597 1.86822 4.9741 1.12989 6.15376C0.391547 7.33342 0 8.69701 0 10.0887C0 11.4804 0.391547 12.844 1.12989 14.0236C1.86822 15.2033 2.92356 16.1514 4.17528 16.7596C5.427 17.3679 6.82459 17.6117 8.20831 17.4631C9.59204 17.3146 10.9061 16.7798 12.0002 15.9198C11.1167 15.2263 10.4025 14.341 9.91168 13.3308C9.42089 12.3205 9.16638 11.2118 9.1674 10.0887Z" fill="#EB001B"/>
<path d="M23.9998 10.0887C23.9999 11.4803 23.6084 12.8439 22.8701 14.0236C22.1318 15.2032 21.0765 16.1514 19.8248 16.7596C18.5731 17.3679 17.1755 17.6117 15.7918 17.4631C14.4081 17.3146 13.0941 16.7798 12 15.9198C12.8828 15.2257 13.5964 14.3402 14.0871 13.3301C14.5778 12.32 14.8328 11.2117 14.8328 10.0887C14.8328 8.96571 14.5778 7.85739 14.0871 6.84731C13.5964 5.83722 12.8828 4.95172 12 4.25759C13.0941 3.39758 14.4081 2.86275 15.7918 2.71423C17.1755 2.56572 18.5731 2.80951 19.8248 3.41775C21.0765 4.02599 22.1318 4.97412 22.8701 6.15378C23.6084 7.33345 23.9999 8.69703 23.9998 10.0887Z" fill="#00A2E5"/>
</svg>
