<svg width="24" height="24" viewBox="0 0 24 24" fill="none" xmlns="http://www.w3.org/2000/svg">
<path d="M4.36505 21.2342V19.9982C4.3723 19.8942 4.3573 19.7899 4.32106 19.6922C4.28481 19.5945 4.22816 19.5057 4.15486 19.4316C4.08157 19.3575 3.99332 19.2999 3.89601 19.2627C3.79869 19.2254 3.69456 19.2093 3.59053 19.2154C3.45439 19.2066 3.31836 19.2344 3.19662 19.296C3.07489 19.3575 2.9719 19.4507 2.8984 19.5656C2.83141 19.4541 2.73559 19.3627 2.62103 19.3011C2.50647 19.2395 2.37742 19.2099 2.24746 19.2154C2.13417 19.2097 2.02135 19.2337 1.92019 19.285C1.81902 19.3363 1.73301 19.4132 1.67067 19.5079V19.2649H1.24219V21.2342H1.67477V20.1424C1.66542 20.075 1.6711 20.0064 1.69141 19.9415C1.71172 19.8766 1.74616 19.817 1.79224 19.767C1.83833 19.7169 1.89492 19.6777 1.95795 19.6522C2.02098 19.6266 2.0889 19.6154 2.15681 19.6192C2.44107 19.6192 2.58529 19.8046 2.58529 20.1383V21.2342H3.01787V20.1424C3.00922 20.0751 3.0154 20.0068 3.03597 19.9422C3.05654 19.8776 3.091 19.8183 3.13694 19.7684C3.18288 19.7186 3.23918 19.6794 3.30188 19.6536C3.36459 19.6278 3.43217 19.6161 3.4999 19.6192C3.79239 19.6192 3.93247 19.8046 3.93247 20.1383V21.2342H4.36505ZM10.7673 19.2649H10.067V18.6675H9.63439V19.2649H9.23474V19.6563H9.63439V20.5544C9.63439 21.0117 9.81154 21.2836 10.3183 21.2836C10.5076 21.2842 10.6932 21.2313 10.8539 21.1312L10.7303 20.7645C10.6154 20.833 10.485 20.8713 10.3512 20.8757C10.137 20.8757 10.067 20.7439 10.067 20.5462V19.6563H10.7673V19.2649ZM14.4217 19.2154C14.3172 19.2124 14.2138 19.2375 14.1225 19.2883C14.0311 19.339 13.9552 19.4135 13.9026 19.5038V19.2649H13.4782V21.2342H13.9067V20.13C13.9067 19.8046 14.0468 19.6233 14.3269 19.6233C14.4186 19.622 14.5096 19.6388 14.5947 19.6727L14.7265 19.269C14.6287 19.234 14.5256 19.2159 14.4217 19.2154ZM8.89693 19.4214C8.6544 19.2772 8.37555 19.2057 8.09355 19.2154C7.59504 19.2154 7.27371 19.4544 7.27371 19.8458C7.27371 20.1671 7.51265 20.3649 7.95345 20.4267L8.15533 20.4555C8.39016 20.4884 8.50141 20.5502 8.50141 20.6615C8.50141 20.8139 8.34483 20.9005 8.05234 20.9005C7.81706 20.9072 7.58633 20.8347 7.39728 20.6944L7.19542 21.0282C7.44498 21.2025 7.74393 21.292 8.04822 21.2836C8.61676 21.2836 8.94633 21.0158 8.94633 20.6409C8.94633 20.2948 8.68681 20.1135 8.25835 20.0517L8.05649 20.0229C7.87107 19.9982 7.72277 19.9611 7.72277 19.8293C7.72277 19.6851 7.8628 19.5986 8.09767 19.5986C8.31331 19.6018 8.52458 19.66 8.71153 19.7675L8.89693 19.4214ZM20.3749 19.2154C20.2704 19.2124 20.167 19.2375 20.0757 19.2883C19.9843 19.339 19.9084 19.4135 19.8558 19.5038V19.2649H19.4314V21.2342H19.8599V20.13C19.8599 19.8046 20 19.6233 20.2801 19.6233C20.3718 19.622 20.4628 19.6388 20.5479 19.6727L20.6798 19.269C20.5819 19.234 20.4788 19.2159 20.3749 19.2154ZM14.8542 20.2495C14.8485 20.3882 14.872 20.5266 14.923 20.6557C14.974 20.7849 15.0514 20.9019 15.1504 20.9993C15.2493 21.0967 15.3676 21.1724 15.4975 21.2213C15.6275 21.2703 15.7662 21.2915 15.9048 21.2836C16.1621 21.2965 16.4148 21.2128 16.6134 21.0488L16.4075 20.7027C16.2593 20.8156 16.0787 20.8777 15.8925 20.8798C15.7319 20.8701 15.5811 20.7994 15.4709 20.6823C15.3606 20.5652 15.2992 20.4104 15.2992 20.2495C15.2992 20.0886 15.3606 19.9338 15.4709 19.8167C15.5811 19.6996 15.7319 19.6289 15.8925 19.6192C16.0787 19.6213 16.2593 19.6834 16.4075 19.7964L16.6134 19.4503C16.4148 19.2863 16.1621 19.2025 15.9048 19.2154C15.7662 19.2075 15.6275 19.2288 15.4976 19.2777C15.3676 19.3267 15.2494 19.4023 15.1504 19.4997C15.0515 19.5971 14.974 19.7141 14.923 19.8432C14.872 19.9724 14.8486 20.1107 14.8542 20.2495ZM18.867 20.2495V19.2649H18.4385V19.5038C18.3654 19.4096 18.2708 19.3342 18.1625 19.284C18.0543 19.2339 17.9356 19.2103 17.8164 19.2154C17.5509 19.2284 17.3006 19.3431 17.1173 19.5356C16.934 19.7281 16.8318 19.9837 16.8318 20.2495C16.8318 20.5153 16.934 20.771 17.1173 20.9635C17.3006 21.156 17.5509 21.2706 17.8164 21.2836C17.9356 21.2887 18.0543 21.2652 18.1625 21.215C18.2708 21.1648 18.3654 21.0894 18.4385 20.9952V21.2342H18.867V20.2495ZM17.2726 20.2495C17.2793 20.1333 17.3198 20.0215 17.3892 19.9281C17.4585 19.8346 17.5537 19.7635 17.6631 19.7235C17.7724 19.6835 17.891 19.6764 18.0043 19.703C18.1176 19.7297 18.2207 19.7889 18.3007 19.8734C18.3808 19.9578 18.4344 20.0639 18.4549 20.1785C18.4754 20.2931 18.4619 20.4111 18.4161 20.5181C18.3704 20.6252 18.2942 20.7164 18.1972 20.7807C18.1002 20.845 17.9864 20.8794 17.87 20.8798C17.7884 20.8809 17.7075 20.8651 17.6323 20.8334C17.5572 20.8017 17.4894 20.7547 17.4332 20.6955C17.3771 20.6363 17.3339 20.5661 17.3062 20.4893C17.2786 20.4125 17.2671 20.3309 17.2726 20.2495ZM12.1022 19.2154C11.835 19.2295 11.5836 19.3465 11.4008 19.5419C11.218 19.7373 11.118 19.9959 11.1217 20.2634C11.1255 20.5309 11.2327 20.7866 11.4208 20.9769C11.609 21.1671 11.8636 21.277 12.131 21.2836C12.425 21.2939 12.7124 21.1957 12.9385 21.0076L12.7284 20.6903C12.5657 20.8207 12.3642 20.8932 12.1557 20.8963C12.0142 20.9082 11.8735 20.8646 11.7635 20.7746C11.6536 20.6846 11.583 20.5554 11.5666 20.4143H13.0292C13.0333 20.3607 13.0374 20.3072 13.0374 20.2495C13.0333 19.6357 12.6543 19.2154 12.1022 19.2154ZM12.0939 19.5986C12.2234 19.5961 12.3485 19.6449 12.4419 19.7345C12.5354 19.8241 12.5895 19.9471 12.5924 20.0765H11.5707C11.5782 19.9443 11.6372 19.8202 11.735 19.7309C11.8327 19.6416 11.9616 19.5941 12.0939 19.5986ZM22.8427 20.2495V18.4739H22.4142V19.5038C22.3411 19.4096 22.2464 19.3342 22.1382 19.284C22.03 19.2339 21.9113 19.2103 21.7921 19.2154C21.5266 19.2284 21.2763 19.3431 21.093 19.5356C20.9097 19.7281 20.8074 19.9837 20.8074 20.2495C20.8074 20.5153 20.9097 20.771 21.093 20.9635C21.2763 21.156 21.5266 21.2706 21.7921 21.2836C21.9113 21.2887 22.03 21.2652 22.1382 21.215C22.2464 21.1648 22.3411 21.0894 22.4142 20.9952V21.2342H22.8427V20.2495ZM23.5569 20.9488C23.5835 20.9486 23.6099 20.9538 23.6344 20.9641C23.658 20.974 23.6795 20.9882 23.6978 21.0061C23.7159 21.024 23.7304 21.0451 23.7404 21.0685C23.7507 21.0925 23.756 21.1183 23.756 21.1444C23.756 21.1705 23.7507 21.1963 23.7404 21.2203C23.7303 21.2436 23.7158 21.2647 23.6978 21.2825C23.6795 21.3003 23.658 21.3146 23.6344 21.3246C23.6099 21.3351 23.5836 21.3404 23.5569 21.3403C23.5177 21.3407 23.4793 21.3295 23.4464 21.3082C23.4135 21.2868 23.3876 21.2563 23.372 21.2203C23.3617 21.1963 23.3564 21.1705 23.3564 21.1444C23.3564 21.1183 23.3617 21.0925 23.372 21.0685C23.382 21.0452 23.3965 21.024 23.4145 21.0061C23.4327 20.9881 23.4543 20.9738 23.478 20.9641C23.503 20.9538 23.5299 20.9486 23.5569 20.9488ZM23.5569 21.2971C23.5772 21.2972 23.5973 21.2932 23.616 21.2851C23.6339 21.2773 23.6501 21.2662 23.6639 21.2525C23.6924 21.2237 23.7083 21.1849 23.7083 21.1445C23.7083 21.1041 23.6924 21.0653 23.6639 21.0365C23.6501 21.0228 23.6339 21.0118 23.616 21.0042C23.5973 20.9963 23.5772 20.9923 23.5569 20.9924C23.5363 20.9923 23.5158 20.9963 23.4967 21.0042C23.4785 21.0117 23.462 21.0227 23.448 21.0365C23.4196 21.0653 23.4036 21.1041 23.4036 21.1445C23.4036 21.1849 23.4196 21.2237 23.448 21.2525C23.462 21.2664 23.4786 21.2774 23.4967 21.2851C23.5158 21.2931 23.5362 21.2972 23.5569 21.2971ZM23.5684 21.0529C23.5877 21.0516 23.6068 21.0571 23.6224 21.0685C23.6287 21.0736 23.6336 21.0801 23.6369 21.0875C23.6402 21.0948 23.6417 21.1029 23.6414 21.1109C23.6416 21.1178 23.6404 21.1247 23.6378 21.1311C23.6352 21.1375 23.6312 21.1433 23.6263 21.1481C23.6143 21.1587 23.5992 21.165 23.5833 21.1661L23.6428 21.2347H23.5963L23.5411 21.1666H23.5234V21.2347H23.4845V21.0529H23.5684ZM23.5234 21.087V21.1354H23.568C23.5766 21.1358 23.5851 21.1337 23.5925 21.1294C23.5955 21.1274 23.5979 21.1246 23.5995 21.1214C23.6011 21.1181 23.6018 21.1145 23.6015 21.1109C23.6017 21.1074 23.601 21.1039 23.5994 21.1007C23.5978 21.0975 23.5954 21.0949 23.5925 21.0929C23.5851 21.0886 23.5765 21.0865 23.568 21.087H23.5234ZM21.2483 20.2495C21.255 20.1333 21.2955 20.0216 21.3649 19.9281C21.4342 19.8347 21.5295 19.7636 21.6388 19.7236C21.7481 19.6836 21.8667 19.6765 21.98 19.7031C22.0933 19.7297 22.1964 19.7889 22.2764 19.8734C22.3565 19.9579 22.4101 20.064 22.4306 20.1785C22.4511 20.2931 22.4376 20.4112 22.3918 20.5182C22.346 20.6252 22.2699 20.7164 22.1728 20.7807C22.0758 20.845 21.9621 20.8794 21.8457 20.8798C21.7641 20.8809 21.6832 20.8651 21.608 20.8334C21.5328 20.8017 21.465 20.7547 21.4089 20.6955C21.3528 20.6363 21.3096 20.5661 21.2819 20.4893C21.2543 20.4125 21.2428 20.3309 21.2483 20.2495ZM6.77931 20.2495V19.2649H6.35083V19.5038C6.27769 19.4096 6.18305 19.3342 6.07482 19.284C5.96659 19.2339 5.84791 19.2103 5.72873 19.2154C5.46323 19.2284 5.21292 19.3431 5.02962 19.5356C4.84633 19.7281 4.74409 19.9837 4.74409 20.2495C4.74409 20.5153 4.84633 20.771 5.02962 20.9635C5.21292 21.156 5.46323 21.2706 5.72873 21.2836C5.84792 21.2887 5.96659 21.2652 6.07482 21.215C6.18305 21.1648 6.27769 21.0894 6.35083 20.9952V21.2342H6.77931V20.2495ZM5.18493 20.2495C5.19159 20.1333 5.23211 20.0216 5.30149 19.9281C5.37088 19.8347 5.46609 19.7636 5.5754 19.7236C5.68471 19.6836 5.80333 19.6765 5.91664 19.7031C6.02994 19.7297 6.13298 19.7889 6.21304 19.8734C6.2931 19.9579 6.34669 20.064 6.36719 20.1785C6.38769 20.2931 6.3742 20.4112 6.32841 20.5182C6.28261 20.6252 6.20649 20.7165 6.10945 20.7807C6.01241 20.845 5.89868 20.8794 5.78229 20.8798C5.70071 20.8809 5.61978 20.8651 5.54461 20.8334C5.46945 20.8017 5.40167 20.7547 5.34555 20.6955C5.28943 20.6363 5.24618 20.5661 5.21854 20.4893C5.19089 20.4125 5.17945 20.3309 5.18493 20.2495Z" fill="#231F20"/>
<path d="M15.2455 4.25684H8.75586V15.919H15.2455V4.25684Z" fill="#FF5F00"/>
<path d="M9.16737 10.0887C9.16635 8.96551 9.42086 7.85685 9.91165 6.84661C10.4024 5.83636 11.1166 4.95101 12.0002 4.25759C10.906 3.39758 9.59201 2.86275 8.20829 2.71423C6.82457 2.56572 5.42699 2.80951 4.17527 3.41774C2.92356 4.02597 1.86822 4.97409 1.12988 6.15375C0.391546 7.33341 0 8.697 0 10.0887C0 11.4803 0.391546 12.8439 1.12988 14.0236C1.86822 15.2032 2.92356 16.1514 4.17527 16.7596C5.42699 17.3678 6.82457 17.6116 8.20829 17.4631C9.59201 17.3146 10.906 16.7798 12.0002 15.9197C11.1166 15.2263 10.4024 14.341 9.91165 13.3307C9.42087 12.3205 9.16635 11.2118 9.16737 10.0887Z" fill="#EB001B"/>
<path d="M23.9998 10.0887C23.9998 11.4803 23.6083 12.8439 22.87 14.0236C22.1317 15.2032 21.0764 16.1513 19.8247 16.7596C18.5731 17.3678 17.1755 17.6116 15.7918 17.4631C14.4081 17.3146 13.0941 16.7798 12 15.9197C12.8828 15.2256 13.5964 14.3401 14.0871 13.33C14.5778 12.3199 14.8328 11.2116 14.8328 10.0887C14.8328 8.96569 14.5778 7.85738 14.0871 6.84729C13.5964 5.83721 12.8828 4.95171 12 4.25758C13.0941 3.39757 14.4081 2.86275 15.7918 2.71423C17.1755 2.56572 18.5731 2.80951 19.8247 3.41775C21.0764 4.02598 22.1317 4.97412 22.87 6.15377C23.6083 7.33343 23.9998 8.69701 23.9998 10.0887Z" fill="#F79E1B"/>
</svg>
