<svg width="34" height="34" viewBox="0 0 34 34" fill="none" xmlns="http://www.w3.org/2000/svg">
<path d="M6.18577 30.0822V28.3313C6.19605 28.184 6.1748 28.0362 6.12345 27.8978C6.07211 27.7594 5.99184 27.6335 5.88801 27.5286C5.78417 27.4236 5.65915 27.3421 5.5213 27.2892C5.38344 27.2364 5.23591 27.2136 5.08854 27.2223C4.89567 27.2098 4.70296 27.2492 4.5305 27.3364C4.35804 27.4237 4.21214 27.5556 4.10802 27.7184C4.01311 27.5605 3.87737 27.431 3.71508 27.3437C3.55279 27.2564 3.36996 27.2145 3.18585 27.2223C3.02536 27.2143 2.86554 27.2483 2.72222 27.321C2.57891 27.3936 2.45706 27.5025 2.36874 27.6367V27.2924H1.76172V30.0822H2.37455V28.5355C2.3613 28.4401 2.36935 28.3429 2.39812 28.2509C2.4269 28.159 2.47568 28.0745 2.54096 28.0037C2.60625 27.9328 2.68642 27.8773 2.77572 27.8411C2.86501 27.8049 2.96122 27.7889 3.05743 27.7943C3.46014 27.7943 3.66445 28.057 3.66445 28.5297V30.0822H4.27727V28.5355C4.26502 28.4403 4.27377 28.3435 4.30291 28.252C4.33205 28.1604 4.38088 28.0764 4.44596 28.0058C4.51103 27.9351 4.59079 27.8796 4.67962 27.8431C4.76845 27.8065 4.8642 27.7899 4.96015 27.7943C5.37451 27.7943 5.57295 28.057 5.57295 28.5297V30.0822H6.18577ZM15.2557 27.2924H14.2635V26.4461H13.6507V27.2924H13.0845V27.8469H13.6507V29.1192C13.6507 29.767 13.9016 30.1523 14.6195 30.1523C14.8877 30.1531 15.1507 30.0782 15.3782 29.9363L15.2032 29.4169C15.0404 29.514 14.8556 29.5682 14.6662 29.5745C14.3627 29.5745 14.2635 29.3876 14.2635 29.1076V27.8469H15.2557V27.2924ZM20.4327 27.2223C20.2847 27.218 20.1382 27.2536 20.0088 27.3255C19.8794 27.3974 19.7718 27.5029 19.6973 27.6309V27.2924H19.0961V30.0822H19.7031V28.518C19.7031 28.057 19.9015 27.8002 20.2985 27.8002C20.4283 27.7984 20.5572 27.8222 20.6778 27.8702L20.8646 27.2982C20.7259 27.2486 20.5799 27.2229 20.4327 27.2223ZM12.6059 27.5142C12.2624 27.3099 11.8673 27.2086 11.4678 27.2223C10.7616 27.2223 10.3064 27.5609 10.3064 28.1153C10.3064 28.5706 10.6449 28.8507 11.2693 28.9383L11.5553 28.9791C11.888 29.0257 12.0456 29.1133 12.0456 29.2709C12.0456 29.4869 11.8238 29.6095 11.4094 29.6095C11.0761 29.6191 10.7493 29.5163 10.4814 29.3176L10.1955 29.7904C10.549 30.0373 10.9725 30.1642 11.4036 30.1523C12.209 30.1523 12.6759 29.7729 12.6759 29.2418C12.6759 28.7515 12.3083 28.4947 11.7013 28.4071L11.4153 28.3663C11.1526 28.3313 10.9425 28.2788 10.9425 28.092C10.9425 27.8877 11.1409 27.7651 11.4736 27.7651C11.7791 27.7697 12.0784 27.8521 12.3433 28.0044L12.6059 27.5142ZM28.8664 27.2223C28.7184 27.218 28.5719 27.2536 28.4425 27.3255C28.3131 27.3974 28.2055 27.5029 28.131 27.6309V27.2924H27.5298V30.0822H28.1368V28.518C28.1368 28.057 28.3353 27.8002 28.7321 27.8002C28.8619 27.7984 28.9909 27.8222 29.1115 27.8702L29.2983 27.2982C29.1597 27.2486 29.0136 27.2229 28.8664 27.2223ZM21.0455 28.6872C21.0374 28.8838 21.0706 29.0798 21.1428 29.2628C21.2151 29.4458 21.3248 29.6116 21.465 29.7496C21.6052 29.8875 21.7727 29.9947 21.9568 30.064C22.1409 30.1334 22.3374 30.1634 22.5338 30.1523C22.8982 30.1706 23.2563 30.0519 23.5376 29.8196L23.2458 29.3293C23.036 29.4893 22.7801 29.5773 22.5163 29.5803C22.2888 29.5665 22.0752 29.4664 21.919 29.3004C21.7628 29.1345 21.6759 28.9152 21.6759 28.6873C21.6759 28.4594 21.7628 28.2401 21.919 28.0742C22.0752 27.9082 22.2888 27.8081 22.5163 27.7943C22.7801 27.7973 23.036 27.8853 23.2458 28.0453L23.5376 27.555C23.2563 27.3227 22.8982 27.2041 22.5338 27.2223C22.3374 27.2112 22.1409 27.2412 21.9568 27.3106C21.7728 27.3799 21.6052 27.487 21.4651 27.625C21.3249 27.763 21.2151 27.9288 21.1428 28.1117C21.0706 28.2947 21.0374 28.4907 21.0455 28.6872ZM26.7302 28.6872V27.2924H26.1232V27.6309C26.0196 27.4974 25.8855 27.3906 25.7322 27.3195C25.5789 27.2485 25.4107 27.2151 25.2419 27.2223C24.8658 27.2408 24.5112 27.4032 24.2515 27.6759C23.9918 27.9486 23.847 28.3108 23.847 28.6873C23.847 29.0639 23.9918 29.426 24.2515 29.6987C24.5112 29.9715 24.8658 30.1338 25.2419 30.1523C25.4108 30.1595 25.5789 30.1262 25.7322 30.0551C25.8855 29.984 26.0196 29.8772 26.1232 29.7437V30.0822H26.7302V28.6872ZM24.4715 28.6872C24.4809 28.5226 24.5383 28.3643 24.6366 28.2319C24.7349 28.0995 24.8698 27.9988 25.0246 27.9422C25.1795 27.8855 25.3475 27.8754 25.5081 27.9131C25.6686 27.9508 25.8146 28.0347 25.928 28.1544C26.0414 28.2741 26.1174 28.4244 26.1464 28.5867C26.1755 28.749 26.1564 28.9163 26.0915 29.0679C26.0266 29.2195 25.9188 29.3488 25.7813 29.4398C25.6438 29.5309 25.4827 29.5797 25.3178 29.5803C25.2022 29.5818 25.0876 29.5594 24.9811 29.5145C24.8746 29.4695 24.7786 29.403 24.699 29.3191C24.6195 29.2352 24.5583 29.1358 24.5191 29.027C24.4799 28.9183 24.4637 28.8026 24.4715 28.6872ZM17.1467 27.2223C16.7682 27.2423 16.4121 27.408 16.1531 27.6848C15.8942 27.9616 15.7525 28.328 15.7577 28.707C15.763 29.086 15.9149 29.4482 16.1815 29.7177C16.4481 29.9872 16.8087 30.1429 17.1876 30.1523C17.604 30.1669 18.0112 30.0277 18.3315 29.7612L18.0338 29.3118C17.8034 29.4965 17.5179 29.5992 17.2226 29.6036C17.022 29.6205 16.8228 29.5586 16.667 29.4312C16.5112 29.3037 16.4111 29.1206 16.388 28.9207H18.4599C18.4658 28.8449 18.4716 28.769 18.4716 28.6872C18.4658 27.8177 17.9288 27.2223 17.1467 27.2223ZM17.135 27.7651C17.3184 27.7616 17.4957 27.8308 17.628 27.9577C17.7604 28.0846 17.8371 28.2588 17.8413 28.4422H16.3938C16.4045 28.2549 16.488 28.0792 16.6265 27.9526C16.765 27.8261 16.9475 27.7588 17.135 27.7651ZM32.3624 28.6872V26.1718H31.7554V27.6309C31.6518 27.4974 31.5177 27.3906 31.3644 27.3195C31.2111 27.2485 31.043 27.2151 30.8741 27.2223C30.498 27.2408 30.1434 27.4032 29.8837 27.6759C29.624 27.9486 29.4792 28.3107 29.4792 28.6873C29.4792 29.0639 29.624 29.426 29.8837 29.6988C30.1434 29.9715 30.498 30.1339 30.8741 30.1523C31.043 30.1595 31.2111 30.1262 31.3644 30.0551C31.5177 29.984 31.6518 29.8772 31.7554 29.7437V30.0822H32.3624V28.6872ZM33.3743 29.6779C33.412 29.6777 33.4493 29.6851 33.4841 29.6997C33.5175 29.7136 33.5479 29.7338 33.5738 29.7591C33.5994 29.7844 33.62 29.8144 33.6342 29.8475C33.6488 29.8815 33.6563 29.9181 33.6563 29.9551C33.6563 29.992 33.6488 30.0286 33.6342 30.0626C33.6199 30.0955 33.5994 30.1254 33.5738 30.1506C33.5479 30.176 33.5174 30.1962 33.4841 30.2104C33.4494 30.2252 33.412 30.2328 33.3743 30.2325C33.3187 30.2331 33.2643 30.2173 33.2177 30.187C33.1711 30.1568 33.1344 30.1136 33.1123 30.0626C33.0977 30.0286 33.0902 29.992 33.0902 29.9551C33.0902 29.9181 33.0977 29.8815 33.1123 29.8475C33.1265 29.8145 33.1469 29.7845 33.1725 29.7591C33.1983 29.7336 33.2289 29.7134 33.2625 29.6997C33.2979 29.685 33.3359 29.6776 33.3743 29.6779ZM33.3743 30.1713C33.403 30.1716 33.4315 30.1658 33.4579 30.1544C33.4832 30.1433 33.5063 30.1277 33.5258 30.1081C33.5661 30.0674 33.5887 30.0125 33.5887 29.9552C33.5887 29.8979 33.5661 29.843 33.5258 29.8023C33.5063 29.7828 33.4833 29.7672 33.4579 29.7564C33.4315 29.7452 33.403 29.7395 33.3743 29.7398C33.345 29.7395 33.316 29.7452 33.289 29.7564C33.2632 29.767 33.2398 29.7826 33.22 29.8023C33.1797 29.8429 33.1571 29.8979 33.1571 29.9552C33.1571 30.0125 33.1797 30.0674 33.22 30.1081C33.2398 30.1278 33.2632 30.1435 33.289 30.1544C33.316 30.1658 33.345 30.1715 33.3743 30.1713ZM33.3906 29.8254C33.4179 29.8236 33.4449 29.8314 33.4671 29.8475C33.4759 29.8548 33.4829 29.864 33.4876 29.8744C33.4922 29.8849 33.4944 29.8962 33.4939 29.9076C33.4942 29.9174 33.4925 29.9272 33.4888 29.9362C33.4851 29.9453 33.4795 29.9535 33.4725 29.9603C33.4556 29.9753 33.4342 29.9842 33.4116 29.9858L33.4959 30.083H33.43L33.3519 29.9865H33.3267V30.083H33.2717V29.8254H33.3906ZM33.3267 29.8737V29.9423H33.3899C33.4021 29.9429 33.4141 29.9399 33.4246 29.9338C33.4289 29.9309 33.4323 29.927 33.4345 29.9224C33.4368 29.9179 33.4378 29.9127 33.4375 29.9076C33.4378 29.9026 33.4367 29.8976 33.4345 29.8932C33.4322 29.8887 33.4288 29.8849 33.4246 29.8821C33.4141 29.876 33.4021 29.8731 33.3899 29.8737H33.3267ZM30.1037 28.6872C30.1131 28.5226 30.1705 28.3644 30.2688 28.232C30.3671 28.0996 30.502 27.9989 30.6569 27.9422C30.8117 27.8856 30.9798 27.8755 31.1403 27.9132C31.3008 27.9509 31.4468 28.0348 31.5602 28.1545C31.6736 28.2742 31.7495 28.4244 31.7786 28.5868C31.8076 28.7491 31.7885 28.9163 31.7236 29.0679C31.6588 29.2195 31.5509 29.3488 31.4135 29.4398C31.276 29.5309 31.1149 29.5797 30.95 29.5803C30.8344 29.5818 30.7198 29.5594 30.6133 29.5145C30.5068 29.4695 30.4108 29.403 30.3313 29.3191C30.2517 29.2352 30.1905 29.1358 30.1513 29.027C30.1122 28.9183 30.096 28.8026 30.1037 28.6872ZM9.60598 28.6872V27.2924H8.99896V27.6309C8.89535 27.4974 8.76128 27.3906 8.60795 27.3195C8.45462 27.2485 8.2865 27.2151 8.11765 27.2223C7.74153 27.2408 7.38692 27.4032 7.12725 27.6759C6.86758 27.9486 6.72275 28.3108 6.72275 28.6873C6.72275 29.0639 6.86758 29.426 7.12725 29.6987C7.38692 29.9715 7.74153 30.1338 8.11765 30.1523C8.2865 30.1595 8.45462 30.1262 8.60795 30.0551C8.76128 29.984 8.89535 29.8772 8.99896 29.7437V30.0822H9.60598V28.6872ZM7.34727 28.6872C7.3567 28.5226 7.4141 28.3644 7.5124 28.232C7.61069 28.0996 7.74559 27.9989 7.90044 27.9422C8.0553 27.8856 8.22334 27.8755 8.38386 27.9132C8.54437 27.9509 8.69034 28.0348 8.80376 28.1545C8.91718 28.2742 8.99309 28.4245 9.02213 28.5868C9.05118 28.7491 9.03207 28.9163 8.9672 29.0679C8.90232 29.2195 8.79449 29.3488 8.65701 29.4398C8.51953 29.5309 8.35842 29.5797 8.19353 29.5803C8.07796 29.5818 7.96331 29.5594 7.85682 29.5145C7.75034 29.4695 7.65432 29.403 7.57481 29.3191C7.49531 29.2352 7.43404 29.1358 7.39488 29.027C7.35572 28.9183 7.33951 28.8026 7.34727 28.6872Z" fill="white"/>
<path d="M21.598 6.03101H12.4043V22.5524H21.598V6.03101Z" fill="#FF5F00"/>
<path d="M12.9871 14.2923C12.9857 12.7011 13.3462 11.1305 14.0415 9.69936C14.7368 8.26818 15.7485 7.01393 17.0002 6.03158C15.4502 4.81323 13.5887 4.05556 11.6284 3.84516C9.66814 3.63477 7.68823 3.98014 5.91497 4.84179C4.14171 5.70345 2.64664 7.04663 1.60067 8.71781C0.55469 10.389 0 12.3207 0 14.2923C0 16.2638 0.55469 18.1956 1.60067 19.8667C2.64664 21.5379 4.14171 22.8811 5.91497 23.7428C7.68823 24.6044 9.66814 24.9498 11.6284 24.7394C13.5887 24.529 15.4502 23.7713 17.0002 22.553C15.7486 21.5706 14.7368 20.3164 14.0415 18.8852C13.3462 17.454 12.9857 15.8834 12.9871 14.2923Z" fill="#EB001B"/>
<path d="M33.9997 14.2923C33.9998 16.2638 33.4451 18.1955 32.3992 19.8667C31.3533 21.5379 29.8583 22.8811 28.0851 23.7427C26.3118 24.6044 24.3319 24.9498 22.3717 24.7394C20.4115 24.529 18.55 23.7713 17 22.553C18.2506 21.5696 19.2615 20.3152 19.9567 18.8842C20.6519 17.4533 21.0131 15.8831 21.0131 14.2923C21.0131 12.7014 20.6519 11.1313 19.9567 9.70033C19.2615 8.26938 18.2506 7.01493 17 6.03158C18.55 4.81323 20.4115 4.05556 22.3717 3.84516C24.3319 3.63477 26.3118 3.98014 28.0851 4.84181C29.8583 5.70348 31.3533 7.04666 32.3992 8.71785C33.4451 10.389 33.9998 12.3208 33.9997 14.2923Z" fill="#F79E1B"/>
</svg>
