<svg xmlns="http://www.w3.org/2000/svg" width="59" height="24" viewBox="0 0 59 24" fill="none">
<path fill-rule="evenodd" clip-rule="evenodd" d="M7.8832 4.56982C8.98918 4.65863 10.0952 4.03691 10.7864 3.24866C11.4661 2.43821 11.9154 1.3502 11.8002 0.23999C10.821 0.284399 9.61129 0.861709 8.92006 1.67216C8.28642 2.3716 7.74495 3.50401 7.8832 4.56982ZM21.0392 18.8693V1.5611H27.7787C31.258 1.5611 33.6888 3.87034 33.6888 7.24538C33.6888 10.6204 31.2119 12.9519 27.6866 12.9519H23.8272V18.8693H21.0392ZM11.7886 4.78075C10.8142 4.72671 9.9252 5.06313 9.20709 5.33486C8.74497 5.50973 8.35364 5.65781 8.05592 5.65781C7.72182 5.65781 7.31433 5.50181 6.85681 5.32666L6.85681 5.32666C6.25732 5.09716 5.57193 4.83477 4.85319 4.84736C3.20574 4.86956 1.6735 5.76883 0.832492 7.20101C-0.895599 10.0654 0.383189 14.3064 2.05368 16.6378C2.87164 17.7924 3.85089 19.0581 5.1412 19.0137C5.70886 18.993 6.1172 18.826 6.53979 18.6532C7.02631 18.4543 7.53173 18.2476 8.32089 18.2476C9.0827 18.2476 9.566 18.4489 10.03 18.6421C10.4711 18.8258 10.8947 19.0023 11.5236 18.9914C12.86 18.9692 13.701 17.8368 14.519 16.6822C15.4017 15.443 15.7896 14.2336 15.8485 14.05L15.8485 14.05L15.8554 14.0288C15.854 14.0274 15.8431 14.0227 15.824 14.0142L15.8239 14.0142L15.8238 14.0141L15.8238 14.0141C15.5287 13.884 13.2733 12.889 13.2517 10.2208C13.23 7.98123 15.0406 6.84654 15.3257 6.66792C15.343 6.65705 15.3547 6.64972 15.36 6.6459C14.2079 5.00279 12.4107 4.82515 11.7886 4.78075ZM38.781 19.0026C40.5322 19.0026 42.1566 18.1478 42.8939 16.7933H42.9515V18.8694H45.5321V10.2542C45.5321 7.75618 43.4584 6.14638 40.2672 6.14638C37.3064 6.14638 35.1175 7.77839 35.0368 10.021H37.5483C37.7557 8.95521 38.781 8.25578 40.1866 8.25578C41.8916 8.25578 42.8478 9.02182 42.8478 10.4318V11.3866L39.3686 11.5864C36.1313 11.7751 34.3802 13.0519 34.3802 15.2723C34.3802 17.5149 36.1889 19.0026 38.781 19.0026ZM39.5293 16.9487C38.0431 16.9487 37.0985 16.2603 37.0985 15.2056C37.0985 14.1176 38.0086 13.4848 39.7482 13.3849L42.8472 13.1961V14.1731C42.8472 15.794 41.4187 16.9487 39.5293 16.9487ZM54.0928 19.5466C52.9753 22.5775 51.6965 23.5767 48.9776 23.5767C48.7703 23.5767 48.079 23.5545 47.9178 23.5101V21.434C48.0906 21.4562 48.5168 21.4784 48.7357 21.4784C49.9684 21.4784 50.6597 20.9788 51.0859 19.6798L51.3394 18.9138L46.6159 6.3129H49.5306L52.814 16.5379H52.8716L56.155 6.3129H58.9891L54.0928 19.5466ZM23.8264 3.82599H27.0406C29.46 3.82599 30.8424 5.06942 30.8424 7.25654C30.8424 9.44365 29.46 10.6982 27.0291 10.6982H23.8264V3.82599Z" fill="currentColor"/>
</svg>