<svg xmlns="http://www.w3.org/2000/svg" width="47" height="18" viewBox="0 0 47 18" fill="none">
<path d="M22.5134 8.7906V14.0662H20.8281V1.03774H25.2979C25.8314 1.02667 26.3619 1.12064 26.8587 1.31423C27.3554 1.50782 27.8087 1.79718 28.1923 2.16564C28.5797 2.51172 28.888 2.93615 29.0966 3.41041C29.3051 3.88467 29.409 4.39776 29.4013 4.91521C29.4124 5.43542 29.3101 5.95187 29.1014 6.42915C28.8927 6.90643 28.5826 7.33325 28.1923 7.68037C27.4107 8.42052 26.4459 8.79025 25.2979 8.78956H22.5134V8.7906ZM22.5134 2.64174V7.18971H25.3398C25.6496 7.19883 25.958 7.14363 26.2451 7.02764C26.5322 6.91165 26.7918 6.73742 27.0073 6.51609C27.2216 6.30916 27.392 6.06165 27.5083 5.7882C27.6247 5.51474 27.6846 5.2209 27.6846 4.92404C27.6846 4.62719 27.6247 4.33334 27.5083 4.05989C27.392 3.78644 27.2216 3.53893 27.0073 3.332C26.7945 3.10601 26.5358 2.92751 26.2484 2.80833C25.9609 2.68915 25.6512 2.63201 25.3398 2.6407H22.5134V2.64174Z" fill="#1D1D1D"/>
<path d="M33.2859 4.86133C34.5316 4.86133 35.5149 5.1919 36.2357 5.85305C36.9566 6.51419 37.3167 7.42067 37.316 8.57247V14.0664H35.704V12.8294H35.6307C34.9328 13.8481 34.0047 14.3575 32.8463 14.3575C31.8574 14.3575 31.0301 14.0664 30.3643 13.4843C30.0448 13.2171 29.7894 12.8825 29.6166 12.5048C29.4439 12.1272 29.3581 11.716 29.3657 11.3013C29.3657 10.3788 29.7167 9.64527 30.4188 9.10055C31.1208 8.55584 32.058 8.28279 33.2304 8.2814C34.2311 8.2814 35.0553 8.46332 35.7029 8.82716V8.44461C35.7048 8.16187 35.6434 7.88226 35.523 7.62604C35.4026 7.36982 35.2262 7.14343 35.0068 6.96327C34.5611 6.56396 33.9803 6.34608 33.3801 6.35306C32.4387 6.35306 31.6937 6.74739 31.1452 7.53605L29.6609 6.60775C30.4774 5.44347 31.6857 4.86133 33.2859 4.86133ZM31.1054 11.3376C31.1043 11.5506 31.1545 11.7608 31.2517 11.9507C31.3489 12.1406 31.4904 12.3046 31.6644 12.4291C32.0372 12.7203 32.4998 12.8746 32.974 12.8658C33.6851 12.8646 34.3668 12.5835 34.8697 12.084C35.428 11.5622 35.7071 10.9499 35.7071 10.2472C35.1816 9.83135 34.4489 9.62344 33.5089 9.62344C32.8243 9.62344 32.2534 9.78734 31.7963 10.1151C31.3347 10.4478 31.1054 10.8522 31.1054 11.3376Z" fill="#1D1D1D"/>
<path d="M46.5692 5.15674L40.9416 18.0002H39.2019L41.2902 13.5063L37.5898 5.15674H39.4217L42.0962 11.5603H42.1329L44.7341 5.15674H46.5692Z" fill="#1D1D1D"/>
<path d="M15.7043 7.6542C15.7049 7.14416 15.6615 6.635 15.5745 6.13232H8.4668V9.01496H12.5377C12.4544 9.47535 12.2781 9.91423 12.0194 10.3051C11.7607 10.696 11.425 11.0309 11.0325 11.2895V13.1606H13.462C14.8846 11.8581 15.7043 9.93183 15.7043 7.6542Z" fill="#4285F4"/>
<path d="M8.46638 14.9706C10.5003 14.9706 12.2128 14.3074 13.4616 13.1639L11.0321 11.2928C10.3558 11.7481 9.4849 12.008 8.46638 12.008C6.50052 12.008 4.83195 10.6919 4.23528 8.91846H1.73242V10.8468C2.35973 12.0864 3.32163 13.1285 4.51073 13.8567C5.69984 14.5849 7.06936 14.9706 8.46638 14.9706Z" fill="#34A853"/>
<path d="M4.23509 8.91513C3.91965 7.98583 3.91965 6.97946 4.23509 6.05017V4.12183H1.73223C1.20452 5.16464 0.929687 6.31556 0.929688 7.48265C0.929687 8.64973 1.20452 9.80065 1.73223 10.8435L4.23509 8.91513Z" fill="#FBBC04"/>
<path d="M8.46638 2.96317C9.54121 2.94573 10.5798 3.34902 11.3576 4.08587L13.5087 1.94962C12.1447 0.677308 10.3376 -0.0212135 8.46638 0.000491064C7.06936 0.000554294 5.69984 0.386216 4.51073 1.11442C3.32163 1.84262 2.35973 2.88471 1.73242 4.12433L4.23528 6.05267C4.83195 4.27922 6.50052 2.96317 8.46638 2.96317Z" fill="#EA4335"/>
</svg>