<svg xmlns="http://www.w3.org/2000/svg" width="75" height="18" viewBox="0 0 75 18" fill="none">
<path d="M5.25127 17.3904L5.56634 15.409L4.86459 15.3929H1.51367L3.84241 0.771426C3.84952 0.727282 3.8731 0.686125 3.90743 0.656902C3.94177 0.627678 3.98581 0.611572 4.03159 0.611572H9.68177C11.5576 0.611572 12.852 0.998089 13.5279 1.76098C13.8447 2.11887 14.0466 2.49285 14.1442 2.90442C14.2465 3.33628 14.2484 3.85223 14.1483 4.48151L14.1411 4.52744V4.93065L14.458 5.10841C14.7249 5.24857 14.9368 5.40903 15.0994 5.59275C15.3706 5.89874 15.5459 6.28764 15.62 6.74871C15.6964 7.22292 15.6711 7.78718 15.5459 8.42601C15.4013 9.16087 15.1676 9.80089 14.852 10.3246C14.5615 10.8071 14.1917 11.2073 13.7526 11.5176C13.3334 11.8122 12.8352 12.0359 12.272 12.1791C11.7261 12.3197 11.104 12.3908 10.4215 12.3908H9.98175C9.66738 12.3908 9.36185 12.503 9.12221 12.704C8.88188 12.9092 8.7227 13.1894 8.67398 13.4961L8.64086 13.6745L8.08425 17.1667L8.05894 17.295C8.05235 17.3357 8.0409 17.3559 8.02408 17.3697C8.009 17.382 7.98732 17.3904 7.96617 17.3904H5.25127Z" fill="#253B80"/>
<path d="M14.7593 4.57495C14.7425 4.68172 14.7232 4.79087 14.7016 4.903C13.9563 8.69123 11.4072 9.99991 8.15127 9.99991H6.49358C6.09546 9.99991 5.75994 10.2862 5.69786 10.6751L4.84907 16.0053L4.60874 17.5161C4.56834 17.7714 4.76723 18.0017 5.02733 18.0017H7.96764C8.31583 18.0017 8.61147 17.7511 8.66626 17.4112L8.69522 17.2632L9.24888 13.7845L9.28443 13.5937C9.33853 13.2526 9.63487 13.0021 9.98305 13.0021H10.4228C13.2714 13.0021 15.5015 11.8568 16.1533 8.54271C16.4255 7.15828 16.2845 6.00232 15.564 5.18932C15.3461 4.94416 15.0756 4.74076 14.7593 4.57495Z" fill="#179BD7"/>
<path d="M13.9793 4.26898C13.8655 4.23617 13.748 4.20635 13.6275 4.17951C13.5064 4.15327 13.3823 4.13001 13.2547 4.10973C12.8076 4.03815 12.318 4.00415 11.7933 4.00415H7.36466C7.25559 4.00415 7.15208 4.0286 7.05931 4.07274C6.85505 4.16996 6.70332 4.36144 6.66656 4.59585L5.72432 10.5046L5.69727 10.6769C5.75934 10.288 6.09487 10.0017 6.49299 10.0017H8.15068C11.4066 10.0017 13.9559 8.69246 14.701 4.90483C14.7232 4.79269 14.7419 4.68354 14.7587 4.57677C14.5702 4.47775 14.366 4.39305 14.1461 4.32087C14.092 4.30298 14.036 4.28569 13.9793 4.26898Z" fill="#222D65"/>
<path d="M6.66612 4.59325C6.70289 4.35883 6.85478 4.16736 7.05887 4.07073C7.15233 4.02658 7.25533 4.00213 7.36422 4.00213H11.793C12.3177 4.00213 12.8074 4.03613 13.2542 4.10771C13.382 4.12799 13.5062 4.15126 13.6272 4.17749C13.7477 4.20435 13.8651 4.23417 13.979 4.26697C14.0355 4.28367 14.0916 4.30096 14.1464 4.31827C14.3662 4.39044 14.5705 4.47574 14.759 4.57416C14.9807 3.17422 14.7572 2.22106 13.9929 1.35795C13.1502 0.407771 11.6291 0.000976562 9.68291 0.000976562H4.03255C3.63495 0.000976562 3.29596 0.287271 3.2344 0.676776L0.881039 15.4485C0.834568 15.7408 1.06224 16.0045 1.35979 16.0045H4.84822L5.72405 10.5019L6.66612 4.59325Z" fill="#253B80"/>
<path fill-rule="evenodd" clip-rule="evenodd" d="M26.9141 3.16846H22.939C22.6669 3.16846 22.4356 3.35473 22.3932 3.60766L20.7854 13.2118C20.7535 13.4013 20.9092 13.5721 21.1133 13.5721H23.011C23.283 13.5721 23.5144 13.3859 23.5568 13.1324L23.9904 10.5421C24.0323 10.2884 24.2642 10.1024 24.5357 10.1024H25.794C28.4126 10.1024 29.9237 8.90847 30.3186 6.54267C30.4964 5.50765 30.3261 4.69438 29.8116 4.12466C29.2467 3.49944 28.2445 3.16846 26.9141 3.16846ZM27.3727 6.67623C27.1554 8.02018 26.0655 8.02018 25.0117 8.02018H24.4118L24.8327 5.51018C24.8577 5.35863 24.9971 5.24686 25.1599 5.24686H25.4348C26.1527 5.24686 26.8299 5.24686 27.1798 5.63233C27.3883 5.86245 27.4523 6.20408 27.3727 6.67623ZM38.7967 6.63314H36.8931C36.7309 6.63314 36.5908 6.74491 36.5658 6.89671L36.4816 7.39826L36.3484 7.21655C35.9363 6.65291 35.0175 6.46461 34.1003 6.46461C31.9965 6.46461 30.2 7.9657 29.85 10.0715C29.6682 11.1217 29.9267 12.1261 30.5591 12.8265C31.1393 13.4705 31.9694 13.7389 32.9568 13.7389C34.6517 13.7389 35.5918 12.712 35.5918 12.712L35.5068 13.2105C35.4748 13.4011 35.6305 13.5719 35.8333 13.5719H37.5481C37.8209 13.5719 38.0508 13.3856 38.0939 13.1322L39.1227 6.99353C39.1553 6.80472 39.0001 6.63314 38.7967 6.63314ZM36.1432 10.1239C35.9595 11.1486 35.0963 11.8364 33.9956 11.8364C33.4429 11.8364 33.0009 11.6694 32.7174 11.3528C32.4361 11.0386 32.329 10.591 32.4186 10.0928C32.5902 9.07675 33.4679 8.36663 34.5519 8.36663C35.0923 8.36663 35.5318 8.53567 35.8212 8.85499C36.1112 9.17761 36.2263 9.62771 36.1432 10.1239ZM47.022 6.63289H48.935C49.2029 6.63289 49.3592 6.91598 49.2069 7.12303L42.8447 15.7757C42.7416 15.9159 42.5719 15.9993 42.3906 15.9993H40.48C40.211 15.9993 40.054 15.7139 40.2097 15.5063L42.1908 12.8717L40.0838 7.04573C40.0109 6.84324 40.1696 6.63289 40.3983 6.63289H42.2779C42.5222 6.63289 42.7376 6.78394 42.8081 7.00417L43.9263 10.5228L46.5647 6.86123C46.668 6.7183 46.8396 6.63289 47.022 6.63289Z" fill="#253B80"/>
<path fill-rule="evenodd" clip-rule="evenodd" d="M67.7618 13.2123L69.3932 3.43254C69.4182 3.28073 69.5578 3.16896 69.72 3.16846H71.5566C71.7594 3.16846 71.9152 3.33978 71.8832 3.52935L70.2744 13.133C70.2324 13.3864 70.0011 13.5727 69.7286 13.5727H68.0883C67.8855 13.5727 67.7298 13.4018 67.7618 13.2123ZM55.2678 3.16896H51.2919C51.0205 3.16896 50.7892 3.35524 50.7467 3.60816L49.1389 13.2123C49.1069 13.4018 49.2627 13.5727 49.4658 13.5727H51.5057C51.6954 13.5727 51.8576 13.4424 51.8872 13.265L52.3434 10.5426C52.3853 10.2889 52.6172 10.1029 52.8886 10.1029H54.1464C56.7655 10.1029 58.2763 8.90898 58.6715 6.54318C58.8498 5.50815 58.6785 4.69489 58.1642 4.12517C57.5996 3.49995 56.5981 3.16896 55.2678 3.16896ZM55.7264 6.67674C55.5096 8.02069 54.4196 8.02069 53.3652 8.02069H52.7659L53.1874 5.51069C53.2124 5.35913 53.3507 5.24737 53.514 5.24737H53.7889C54.5063 5.24737 55.1841 5.24737 55.5338 5.63284C55.7425 5.86296 55.806 6.20459 55.7264 6.67674ZM67.1493 6.63365H65.2471C65.0835 6.63365 64.9447 6.74542 64.9202 6.89722L64.8361 7.39877L64.7024 7.21705C64.2903 6.65342 63.372 6.46512 62.4547 6.46512C60.351 6.46512 58.555 7.96621 58.2051 10.072C58.0238 11.1222 58.2812 12.1266 58.9136 12.8271C59.4948 13.471 60.3238 13.7394 61.3113 13.7394C63.0062 13.7394 63.946 12.7125 63.946 12.7125L63.8613 13.211C63.8292 13.4016 63.985 13.5724 64.1891 13.5724H65.9031C66.1745 13.5724 66.4058 13.3861 66.4483 13.1327L67.4777 6.99403C67.5092 6.80523 67.3535 6.63365 67.1493 6.63365ZM64.4961 10.1244C64.3134 11.1491 63.4492 11.8369 62.3482 11.8369C61.7965 11.8369 61.3538 11.6699 61.07 11.3533C60.7886 11.0391 60.6829 10.5915 60.7714 10.0933C60.9439 9.07726 61.8205 8.36714 62.9045 8.36714C63.4451 8.36714 63.8844 8.53617 64.1741 8.8555C64.4651 9.17812 64.5802 9.62822 64.4961 10.1244Z" fill="#179BD7"/>
</svg>